<svg xmlns:dc="http://purl.org/dc/elements/1.1/" xmlns:cc="http://web.resource.org/cc/" xmlns:rdf="http://www.w3.org/1999/02/22-rdf-syntax-ns#" xmlns:svg="http://www.w3.org/2000/svg" xmlns="http://www.w3.org/2000/svg" xmlns:sodipodi="http://sodipodi.sourceforge.net/DTD/sodipodi-0.dtd" xmlns:inkscape="http://www.inkscape.org/namespaces/inkscape" id="svg2" sodipodi:version="0.32" inkscape:version="0.44" width="987.66" height="610.99" version="1" sodipodi:docbase="/Users/dicklyon/Desktop" sodipodi:docname="Fibonacci_spiral.svg">
  <metadata id="metadata7">
    <rdf:RDF>
      <cc:Work rdf:about="">
        <dc:format>
          image/svg+xml
        </dc:format>
        <dc:type rdf:resource="http://purl.org/dc/dcmitype/StillImage"/>
      </cc:Work>
    </rdf:RDF>
  </metadata>
  <defs id="defs5"/>
  <sodipodi:namedview inkscape:window-height="808" inkscape:window-width="1152" inkscape:pageshadow="2" inkscape:pageopacity="0" guidetolerance="10" gridtolerance="10" objecttolerance="10" borderopacity="1" bordercolor="#666666" pagecolor="#ffffff" id="base" width="997.87" height="620.99" inkscape:zoom="0.25" inkscape:cx="702.56" inkscape:cy="166.22" inkscape:window-x="-4" inkscape:window-y="22" inkscape:current-layer="svg2"/>
  <path sodipodi:type="arc" id="path1873" sodipodi:cx="337.94" sodipodi:cy="2354.01" sodipodi:rx="301.58" sodipodi:ry="281.75" d="M36.36 2354.01A301.58 281.75 0 0 1 337.94 2072.26" sodipodi:start="3.14" sodipodi:end="4.71" sodipodi:open="true" transform="matrix(2.022351,0,0,2.164687,-73.02346,-4485.255)" style="fill:none;stroke-miterlimit:4;stroke-width:0.96;stroke:#ccc"/>
  <path transform="matrix(-1.247009,0,0,1.334775,1031.657,-2765.459)" sodipodi:open="true" sodipodi:end="4.71" sodipodi:start="3.14" d="M36.36 2354.01A301.58 281.75 0 0 1 337.94 2072.26" sodipodi:ry="281.75" sodipodi:rx="301.58" sodipodi:cy="2354.01" sodipodi:cx="337.94" id="path1875" sodipodi:type="arc" style="fill:none;stroke-miterlimit:4;stroke-width:1.55;stroke:#ccc"/>
  <path sodipodi:type="arc" id="path2762" sodipodi:cx="337.94" sodipodi:cy="2354.01" sodipodi:rx="301.58" sodipodi:ry="281.75" d="M36.36 2354.01A301.58 281.75 0 0 1 337.94 2072.26" sodipodi:start="3.14" sodipodi:end="4.71" sodipodi:open="true" transform="matrix(0,-0.770297,-0.824511,0,2694.923,636.9008)" style="fill:none;stroke-miterlimit:4;stroke-width:2.51;stroke:#ccc"/>
  <path transform="matrix(0.473354,0,0,-0.50667,594.0855,1658.848)" sodipodi:open="true" sodipodi:end="4.71" sodipodi:start="3.14" d="M36.36 2354.01A301.58 281.75 0 0 1 337.94 2072.26" sodipodi:ry="281.75" sodipodi:rx="301.58" sodipodi:cy="2354.01" sodipodi:cx="337.94" id="path2764" sodipodi:type="arc" style="fill:none;stroke-miterlimit:4;stroke-width:4.08;stroke:#ccc"/>
  <path sodipodi:type="arc" id="path2766" sodipodi:cx="337.94" sodipodi:cy="2354.01" sodipodi:rx="301.58" sodipodi:ry="281.75" d="M36.36 2354.01A301.58 281.75 0 0 1 337.94 2072.26" sodipodi:start="3.14" sodipodi:end="4.71" sodipodi:open="true" transform="matrix(0.290281,0,0,0.310712,600.7412,-265.2473)" style="fill:none;stroke-miterlimit:4;stroke-width:6.66;stroke:#ccc"/>
  <path transform="matrix(-0.181793,0,0,0.194589,760.2218,-24.60904)" sodipodi:open="true" sodipodi:end="4.71" sodipodi:start="3.14" d="M36.36 2354.01A301.58 281.75 0 0 1 337.94 2072.26" sodipodi:ry="281.75" sodipodi:rx="301.58" sodipodi:cy="2354.01" sodipodi:cx="337.94" id="path2768" sodipodi:type="arc" style="fill:none;stroke-miterlimit:4;stroke-width:10.63;stroke:#ccc"/>
  <path sodipodi:type="arc" id="path2770" sodipodi:cx="337.94" sodipodi:cy="2354.01" sodipodi:rx="301.58" sodipodi:ry="281.75" d="M36.36 2354.01A301.58 281.75 0 0 1 337.94 2072.26" sodipodi:start="3.14" sodipodi:end="4.71" sodipodi:open="true" transform="matrix(-0.109629,0,0,-0.117346,757.5983,709.0538)" style="fill:none;stroke-miterlimit:4;stroke-width:17.63;stroke:#ccc"/>
  <path transform="matrix(6.725143e-2,0,0,-7.198541e-2,697.9484,615.0548)" sodipodi:open="true" sodipodi:end="4.71" sodipodi:start="3.14" d="M36.36 2354.01A301.58 281.75 0 0 1 337.94 2072.26" sodipodi:ry="281.75" sodipodi:rx="301.58" sodipodi:cy="2354.01" sodipodi:cx="337.94" id="path2772" sodipodi:type="arc" style="fill:none;stroke-miterlimit:4;stroke-width:28.74;stroke:#ccc"/>
  <path sodipodi:type="arc" id="path2774" sodipodi:cx="337.94" sodipodi:cy="2354.01" sodipodi:rx="301.58" sodipodi:ry="281.75" d="M36.36 2354.01A301.58 281.75 0 0 1 337.94 2072.26" sodipodi:start="3.14" sodipodi:end="4.71" sodipodi:open="true" transform="matrix(4.134032e-2,0,0,4.425038e-2,698.8904,341.5598)" style="fill:none;stroke-miterlimit:4;stroke-width:46.76;stroke:#ccc"/>
  <path transform="matrix(-2.269401e-2,0,0,2.429152e-2,720.4049,382.9198)" sodipodi:open="true" sodipodi:end="4.71" sodipodi:start="3.14" d="M36.36 2354.01A301.58 281.75 0 0 1 337.94 2072.26" sodipodi:ry="281.75" sodipodi:rx="301.58" sodipodi:cy="2354.01" sodipodi:cx="337.94" id="path2776" sodipodi:type="arc" style="fill:none;stroke-miterlimit:4;stroke-width:85.18;stroke:#ccc"/>
  <path sodipodi:type="arc" id="path2778" sodipodi:cx="337.94" sodipodi:cy="2354.01" sodipodi:rx="301.58" sodipodi:ry="281.75" d="M36.36 2354.01A301.58 281.75 0 0 1 337.94 2072.26" sodipodi:start="3.14" sodipodi:end="4.71" sodipodi:open="true" transform="matrix(0,-1.567144e-2,-1.677462e-2,0,754.3412,445.2738)" style="fill:none;stroke-miterlimit:4;stroke-width:123.35;stroke:#ccc"/>
  <path transform="matrix(6.469458e-3,0,0,-6.924892e-3,712.7925,459.0548)" sodipodi:open="true" sodipodi:end="4.71" sodipodi:start="3.14" d="M36.36 2354.01A301.58 281.75 0 0 1 337.94 2072.26" sodipodi:ry="281.75" sodipodi:rx="301.58" sodipodi:cy="2354.01" sodipodi:cx="337.94" id="path2780" sodipodi:type="arc" style="fill:none;stroke-miterlimit:4;stroke-width:298.81;stroke:#ccc"/>
  <path sodipodi:type="arc" id="path2782" sodipodi:cx="337.94" sodipodi:cy="2354.01" sodipodi:rx="301.58" sodipodi:ry="281.75" d="M36.36 2354.01A301.58 281.75 0 0 1 337.94 2072.26" sodipodi:start="3.14" sodipodi:end="4.71" sodipodi:open="true" transform="matrix(0,5.077039e-3,7.378482e-3,0,697.7376,441.2188)" style="fill:none;stroke-miterlimit:4;stroke-width:326.77;stroke:#ccc"/>
  <path d="M712.31 445.49L712.31 432.53" id="rect2784" sodipodi:nodetypes="cc" style="fill:none;stroke:#ccc"/>
  <path d="M720.31 445.49L699.38 445.49" id="rect2786" sodipodi:nodetypes="cc" style="fill:none;stroke:#ccc"/>
  <path d="M712.31 440.52L720.23 440.52" id="rect2788" sodipodi:nodetypes="cc" style="fill:none;stroke-width:1;stroke:#ccc"/>
  <path d="M715.27 440.52L715.27 445.49" id="rect2790" sodipodi:nodetypes="cc" style="fill:none;stroke-width:1;stroke:#ccc"/>
  <path d="M715.27 442.5L712.31 442.5" id="rect2792" sodipodi:nodetypes="cc" style="fill:none;stroke-width:1;stroke:#ccc"/>
  <path d="M720.31 432.53L720.31 466.52" id="rect2794" sodipodi:nodetypes="cc" style="fill:none;stroke:#ccc"/>
  <path d="M699.38 432.53L754.25 432.53" id="rect2796" sodipodi:nodetypes="cc" style="fill:none;stroke-width:1;stroke:#ccc"/>
  <path d="M699.38 466.52L699.38 377.49" id="rect2798" sodipodi:nodetypes="cc" style="fill:none;stroke-width:1;stroke:#ccc"/>
  <path d="M754.25 466.52L610.3 466.52" id="rect2800" sodipodi:nodetypes="cc" style="fill:none;stroke:#ccc"/>
  <path d="M754.25 377.49L754.25 610.49" id="rect2802" sodipodi:nodetypes="cc" style="fill:none;stroke-width:1;stroke:#ccc"/>
  <path d="M610.3 377.49L987.16 377.49" id="rect2804" sodipodi:nodetypes="cc" style="fill:none;stroke-width:1;stroke:#ccc"/>
  <path d="M610.3 610.49L610.3 0.5" id="rect2806" sodipodi:nodetypes="cc" style="fill:none;stroke-width:1;stroke:#ccc"/>
</svg>
