<svg xmlns="http://www.w3.org/2000/svg" xmlns:xlink="http://www.w3.org/1999/xlink" version="1.1" x="0px" y="0px" viewBox="0 0 100 100" style="enable-background:new 0 0 100 100;" xml:space="preserve"><style type="text/css">
	.st0{fill:#FFFFFF;}
</style><path d="M78.6,45.8C74.5,40.6,66,29.8,50,29.8c-15.9,0-24.4,10.8-28.5,16l-3.6,4.3l3.1,3.6c3.7,4.3,12.4,14.5,29,14.5  c16.7,0,25.4-10.2,29.1-14.5l2.9-3.6L78.6,45.8z M50,64.5c-16.3,0-23.9-10.8-27.1-14.4c2.5-2.7,7.3-10.7,16.5-14.5  c-1.3,2-2.1,4.5-2.1,7.1c0,7.1,5.7,12.8,12.8,12.8c7.1,0,12.8-5.7,12.8-12.8c0-2.6-0.8-5-2.1-7c9.2,3.8,14.1,11.8,16.5,14.5  C74,53.7,66.5,64.5,50,64.5z"></path><circle class="st0" cx="46" cy="39.2" r="3.4"></circle></svg>