<svg xmlns="http://www.w3.org/2000/svg" xmlns:xlink="http://www.w3.org/1999/xlink" version="1.1" x="0px" y="0px" viewBox="0 0 100 100" style="enable-background:new 0 0 100 100;" xml:space="preserve"><g><g><path d="M90.3,64.2c-0.2-0.4-4.4-10.4-12-13.4c-0.9-0.4-1.8-0.6-2.8-0.8c1-0.2,1.9-0.5,2.8-0.8c7.5-3.2,11.7-13.2,11.9-13.6    l1.1-2.8l-2.8-1.1c-0.2-0.1-5.6-2.2-11.3-2.2c-2.5,0-4.8,0.4-6.7,1.2c-0.9,0.4-1.8,0.9-2.6,1.4c0.5-0.8,1-1.7,1.4-2.6    c3.1-7.6-1.1-17.6-1.2-18l-1.2-2.8l-2.8,1.2c-0.4,0.2-10.4,4.4-13.5,12c-0.4,0.9-0.6,1.9-0.8,2.8c-0.2-1-0.5-1.9-0.8-2.8    C45.9,14.3,35.9,10.2,35.4,10l-2.8-1.1l-1.1,2.8c-0.2,0.4-4.2,10.5-1,18c0.4,0.9,0.9,1.8,1.4,2.6c-0.8-0.5-1.7-1-2.6-1.4    c-1.9-0.8-4-1.2-6.4-1.2c-5.8,0-11.3,2.3-11.6,2.4l-2.8,1.2L9.8,36c0.2,0.4,4.4,10.4,12,13.4c0.9,0.4,1.8,0.6,2.8,0.8    c-1,0.2-1.9,0.5-2.8,0.8C14.3,54.3,10.1,64.3,10,64.7l-1.1,2.8l2.8,1.1c0.2,0.1,5.6,2.2,11.3,2.2c2.5,0,4.8-0.4,6.7-1.2    c0.9-0.4,1.8-0.9,2.6-1.4c-0.5,0.8-1,1.7-1.4,2.6c-3.1,7.6,1.1,17.6,1.2,18l1.2,2.8l2.8-1.2c0.4-0.2,10.4-4.4,13.4-12    c0.4-0.9,0.6-1.9,0.8-2.8c0.2,1,0.5,1.9,0.9,2.8c3.2,7.5,13.2,11.7,13.6,11.9l2.8,1.1l1.1-2.8c0.2-0.4,4.2-10.5,1-18    c-0.4-0.9-0.9-1.8-1.4-2.6c0.8,0.5,1.7,1,2.6,1.4c1.9,0.8,4,1.1,6.4,1.1c5.8,0,11.3-2.3,11.6-2.4l2.8-1.2L90.3,64.2z M71.7,33.4    c1.7-0.7,3.7-1,5.6-1c5.2,0,10.2,2,10.2,2s-3.8,9.2-10.2,12c-1.7,0.7-3.7,1-5.6,1c-5.2,0-10.2-2-10.2-2S65.2,36.1,71.7,33.4z     M53.5,23c2.7-6.5,11.8-10.4,11.8-10.4s3.9,9.2,1.2,15.7c-2.7,6.5-11.8,10.4-11.8,10.4S50.8,29.5,53.5,23z M34.3,12.8    c0,0,9.2,3.8,12,10.2c2.7,6.5-1,15.7-1,15.7S36,35,33.3,28.5C30.6,22,34.3,12.8,34.3,12.8z M22.9,46.7    c-6.5-2.7-10.4-11.8-10.4-11.8s5.1-2.2,10.4-2.2c1.8,0,3.7,0.3,5.3,0.9c6.5,2.7,10.4,11.8,10.4,11.8s-5.1,2.1-10.4,2.1    C26.4,47.6,24.6,47.4,22.9,46.7z M28.5,66.9c-1.7,0.7-3.7,1-5.6,1c-5.2,0-10.2-2-10.2-2s3.8-9.2,10.2-12c1.7-0.7,3.7-1,5.6-1    c5.2,0,10.2,2,10.2,2S35,64.1,28.5,66.9z M46.6,77.2C44,83.8,34.8,87.6,34.8,87.6s-3.9-9.2-1.2-15.7c2.7-6.5,11.8-10.4,11.8-10.4    S49.3,70.7,46.6,77.2z M50.2,67.6c-0.6-3.9-1.9-7-2-7.2L47,57.6l-2.8,1.2c-0.2,0.1-3.2,1.4-6.5,3.8c2.3-3.2,3.6-6.3,3.7-6.5    l1.1-2.8l-2.8-1.1c-0.2-0.1-3.2-1.3-7.1-1.9c3.9-0.7,6.9-1.9,7.1-2l2.8-1.2l-1.2-2.8c-0.1-0.2-1.4-3.3-3.8-6.5    c3.2,2.3,6.3,3.6,6.5,3.7l2.8,1.1l1.1-2.8c0.1-0.2,1.3-3.3,1.9-7.2c0.6,3.9,1.9,7,2,7.2l1.2,2.8l2.8-1.2c0.2-0.1,3.2-1.4,6.4-3.8    c-2.3,3.2-3.6,6.3-3.7,6.5L57.5,47l2.8,1.1c0.2,0.1,3.2,1.3,7.2,1.9c-3.9,0.7-7,1.9-7.1,2l-2.8,1.2l1.2,2.8    c0.1,0.2,1.4,3.2,3.8,6.5c-3.2-2.3-6.3-3.6-6.5-3.7l-2.8-1.1l-1.1,2.8C52,60.6,50.8,63.6,50.2,67.6z M65.8,87.4    c0,0-9.2-3.8-12-10.2c-2.7-6.5,1-15.7,1-15.7s9.2,3.7,12,10.2C69.6,78.2,65.8,87.4,65.8,87.4z M77.2,67.5c-1.8,0-3.7-0.3-5.3-0.9    c-6.5-2.6-10.4-11.8-10.4-11.8s5.1-2.1,10.4-2.1c1.8,0,3.7,0.3,5.3,0.9c6.5,2.7,10.4,11.8,10.4,11.8S82.5,67.5,77.2,67.5z"></path></g></g></svg>