<svg xmlns="http://www.w3.org/2000/svg" xmlns:xlink="http://www.w3.org/1999/xlink" version="1.1" x="0px" y="0px" viewBox="0 0 100 100" style="enable-background:new 0 0 100 100;" xml:space="preserve"><g><g><path d="M61.7,85.3H44.2c-9.7,0-17.5-7.8-17.5-17.5V36.6h3.9v31.2c0,7.5,6.1,13.6,13.6,13.6h17.5V85.3z"></path></g><g><path d="M28.6,28.9c-6.4,0-11.7-5.2-11.7-11.7S22.1,5.5,28.6,5.5s11.7,5.2,11.7,11.7S35,28.9,28.6,28.9z M28.6,9.4    c-4.3,0-7.8,3.5-7.8,7.8s3.5,7.8,7.8,7.8s7.8-3.5,7.8-7.8S32.9,9.4,28.6,9.4z"></path></g><g><path d="M71.4,95c-6.4,0-11.7-5.2-11.7-11.7c0-6.4,5.2-11.7,11.7-11.7c6.4,0,11.7,5.2,11.7,11.7S77.8,95,71.4,95z M71.4,75.5    c-4.3,0-7.8,3.5-7.8,7.8s3.5,7.8,7.8,7.8c4.3,0,7.8-3.5,7.8-7.8C79.2,79,75.7,75.5,71.4,75.5z"></path></g><g><path d="M61.7,54.1H44.2c-9.7,0-17.5-7.8-17.5-17.5v-9.6h3.9v9.6c0,7.5,6.1,13.6,13.6,13.6h17.5V54.1z"></path></g><g><path d="M71.4,63.8c-6.4,0-11.7-5.2-11.7-11.7S65,40.5,71.4,40.5c6.4,0,11.7,5.2,11.7,11.7S77.8,63.8,71.4,63.8z M71.4,44.3    c-4.3,0-7.8,3.5-7.8,7.8s3.5,7.8,7.8,7.8c4.3,0,7.8-3.5,7.8-7.8S75.7,44.3,71.4,44.3z"></path></g></g></svg>