<svg xmlns="http://www.w3.org/2000/svg" xmlns:xlink="http://www.w3.org/1999/xlink" version="1.1" x="0px" y="0px" viewBox="0 0 100 100" style="enable-background:new 0 0 100 100;" xml:space="preserve"><path d="M78.2,80.3H6.4V36.1h71.8V80.3z M10.1,76.6h64.4V39.8H10.1V76.6z"></path><polygon points="93.7,65.9 77,65.9 77,62.2 90,62.2 90,25.5 25.6,25.5 25.6,37.3 21.9,37.3 21.9,21.8 93.7,21.8 "></polygon><path d="M41.3,71.2c-7.1,0-13-5.8-13-13c0-7.2,5.8-13,13-13s13,5.8,13,13S48.5,71.2,41.3,71.2z M41.3,49c-5.1,0-9.3,4.2-9.3,9.3  s4.2,9.3,9.3,9.3s9.3-4.2,9.3-9.3S46.4,49,41.3,49z"></path><g><path d="M24,36.1H6.4v11.1l3.7,2c4.1,0,9.4-5.3,9.4-9.4H24V36.1z"></path></g><g><path d="M45.5,21.8H21.9v11.1l3.7,2c4.1,0,9.4-5.3,9.4-9.4h10.4V21.8z"></path></g><g><path d="M24,76.6h-4.4c0-4.1-5.3-9.4-9.4-9.4l-3.7,2v11.1H24V76.6z"></path></g><g><path d="M54.6,39.8h10.4c0,4.1,5.3,9.4,9.4,9.4l3.7-2V36.1H54.6V39.8z"></path></g><g><path d="M70.1,25.5h10.4c0,4.1,5.3,9.4,9.4,9.4l3.7-2V21.8H70.1V25.5z"></path></g><g><path d="M80.3,65.9h13.4V54.8l-3.7-2c-4.1,0-9.4,5.3-9.4,9.4h-0.3V65.9z"></path></g><g><path d="M52.6,80.3h23.6l2-11.1l-3.7-2c-4.1,0-9.4,5.3-9.4,9.4H54.6L52.6,80.3z"></path></g></svg>