<svg xmlns="http://www.w3.org/2000/svg" xmlns:xlink="http://www.w3.org/1999/xlink" version="1.1" x="0px" y="0px" viewBox="0 0 100 100" style="enable-background:new 0 0 100 100;" xml:space="preserve"><style type="text/css">
	.st0{fill:none;stroke:#000000;stroke-width:2;stroke-miterlimit:10;}
</style><g><line class="st0" x1="-4147" y1="1904" x2="-4147" y2="1914"></line><line class="st0" x1="-4147" y1="1942" x2="-4147" y2="1952"></line><line class="st0" x1="-4123" y1="1928" x2="-4133" y2="1928"></line><line class="st0" x1="-4161" y1="1928" x2="-4171" y2="1928"></line><line class="st0" x1="-4129.6" y1="1910.6" x2="-4136.7" y2="1917.7"></line><line class="st0" x1="-4157.3" y1="1938.3" x2="-4164.4" y2="1945.4"></line><line class="st0" x1="-4129.6" y1="1945.4" x2="-4136.7" y2="1938.3"></line><line class="st0" x1="-4157.3" y1="1917.7" x2="-4164.4" y2="1910.6"></line></g><g><g><rect x="48" y="12.6" width="4" height="15.6"></rect></g><g><rect x="48" y="72" width="4" height="15.6"></rect></g><g><rect x="71.9" y="48.1" width="15.6" height="4"></rect></g><g><rect x="12.5" y="48.1" width="15.6" height="4"></rect></g><g><rect x="63.8" y="26.5" transform="matrix(0.7071 -0.7071 0.7071 0.7071 0.8107 58.972)" width="15.6" height="4"></rect></g><g><rect x="20.6" y="69.7" transform="matrix(0.7071 -0.7071 0.7071 0.7071 -42.3731 41.085)" width="15.6" height="4"></rect></g><g><rect x="69.6" y="63.9" transform="matrix(0.7071 -0.7071 0.7071 0.7071 -29.7251 71.6256)" width="4" height="15.6"></rect></g><g><rect x="26.4" y="20.7" transform="matrix(0.7071 -0.7071 0.7071 0.7071 -11.8377 28.4373)" width="4" height="15.6"></rect></g></g></svg>