<svg xmlns="http://www.w3.org/2000/svg" xmlns:xlink="http://www.w3.org/1999/xlink" version="1.1" x="0px" y="0px" viewBox="0 0 100 100" style="enable-background:new 0 0 100 100;" xml:space="preserve"><g><g><g><path d="M49.8,87.5c-1.4,0-2.8-0.1-4.2-0.2c-10.3-1.2-19.8-6.8-26.2-15.4c-5.7-7.8-8.1-17.4-6.6-27.2c1.5-9.9,7.1-19,15.2-24.9     c8.2-6,20-8.4,30.8-6.5c9.2,1.7,16.9,6.5,21.6,13.5c6.1,9.1,8.4,19.5,6.3,28.4c-1.6,6.6-6.2,12-10.2,14.3     c-1.7,1.1-8.4,4.3-14.7,0c-2.5-1.7-3.5-4.8-2.9-9.2l5.9-32l3.6,0.7l-5.9,31.8c-0.3,2.8,0.1,4.7,1.4,5.6c4.3,2.7,7.7,1.4,10.8-0.2     c3-1.8,6.9-6.4,8.4-11.9c1.8-7.9-0.3-17.2-5.8-25.5c-4.1-6.2-10.9-10.4-19.1-11.9c-9.8-1.8-20.6,0.5-28,5.8     C23,28.1,18,36.3,16.6,45.3c-1.4,8.8,0.8,17.5,5.9,24.4c5.7,7.8,14.4,12.8,23.6,13.9c9,1.1,17.6-1.6,25-7.8l2.4,2.8     C66.6,84.5,58.3,87.5,49.8,87.5z"></path></g></g><g><path d="M44.7,72.2c-1.2,0-2.3-0.2-3.5-0.5c-8.7-2.7-12.7-14.9-9-27.3C36.1,32.1,46.3,24.2,55,26.8c8.7,2.7,12.7,14.9,9,27.3l0,0    C60.6,64.8,52.5,72.2,44.7,72.2z M51.4,30.2c-6.1,0-12.6,6.3-15.3,15.4C33,55.9,35.8,66,42.4,68c6.6,2,14.6-4.7,17.8-15.1l0,0    c3.1-10.3,0.3-20.4-6.4-22.4C53.1,30.3,52.2,30.2,51.4,30.2z"></path></g></g></svg>