<svg xmlns="http://www.w3.org/2000/svg" xmlns:xlink="http://www.w3.org/1999/xlink" version="1.1" x="0px" y="0px" viewBox="0 0 100 100" style="enable-background:new 0 0 100 100;" xml:space="preserve"><g><g><path d="M31.5,80.9c-8.6,0-18.3-6.3-19.3-20.2l0,0c-1-13.6,9.3-32.1,30.8-40.9l1.5-0.6l6.7,11.1l-1.8,0.9    c-9.9,5-14.8,13.6-16.7,17.7c11.2,1.8,15.3,9.2,15.3,15.8C47.9,73.6,40.5,80.9,31.5,80.9z M16,60.4C16.8,71.8,24.6,77,31.5,77    c7,0,12.7-5.6,12.7-12.4c0-3.3-1.4-11.3-14.4-12.3l-2.4-0.2l0.8-2.3c0.2-0.6,4.6-13.5,17.7-21.1l-2.9-4.8    C24,32.2,15.1,48.4,16,60.4L16,60.4z"></path></g><g><path d="M69.7,80.9c-8.6,0-18.3-6.3-19.3-20.2l0,0c-1-13.6,9.3-32.1,30.8-40.9l1.5-0.6l6.7,11.1l-1.8,0.9    c-9.9,5-14.8,13.6-16.7,17.7c11.2,1.8,15.3,9.2,15.3,15.8C86.2,73.6,78.8,80.9,69.7,80.9z M54.2,60.4C55,71.8,62.8,77,69.7,77    c7,0,12.7-5.6,12.7-12.4c0-3.3-1.4-11.3-14.4-12.3l-2.4-0.2l0.8-2.3c0.2-0.6,4.6-13.5,17.7-21.1l-2.9-4.8    C62.3,32.2,53.4,48.4,54.2,60.4L54.2,60.4z"></path></g></g></svg>