<svg xmlns="http://www.w3.org/2000/svg" xmlns:xlink="http://www.w3.org/1999/xlink" version="1.1" x="0px" y="0px" viewBox="0 0 100 100" style="enable-background:new 0 0 100 100;" xml:space="preserve"><g><g><rect x="26.7" y="26.9" width="3.9" height="34.9"></rect></g><g><path d="M28.6,28.8c-6.4,0-11.7-5.2-11.7-11.7S22.2,5.5,28.6,5.5s11.7,5.2,11.7,11.7S35,28.8,28.6,28.8z M28.6,9.4    c-4.3,0-7.8,3.5-7.8,7.8s3.5,7.8,7.8,7.8s7.8-3.5,7.8-7.8S32.9,9.4,28.6,9.4z"></path></g><g><path d="M71.4,28.8c-6.4,0-11.7-5.2-11.7-11.7S65,5.5,71.4,5.5c6.4,0,11.7,5.2,11.7,11.7S77.8,28.8,71.4,28.8z M71.4,9.4    c-4.3,0-7.8,3.5-7.8,7.8s3.5,7.8,7.8,7.8c4.3,0,7.8-3.5,7.8-7.8S75.7,9.4,71.4,9.4z"></path></g><g><path d="M28.6,94.9c-6.4,0-11.7-5.2-11.7-11.7s5.2-11.7,11.7-11.7s11.7,5.2,11.7,11.7S35,94.9,28.6,94.9z M28.6,75.4    c-4.3,0-7.8,3.5-7.8,7.8s3.5,7.8,7.8,7.8s7.8-3.5,7.8-7.8C36.4,78.9,32.9,75.4,28.6,75.4z"></path></g><g><path d="M30.5,73.4h-3.9V61.8c0-9.7,7.8-17.5,17.5-17.5h11.7c7.5,0,13.6-6.1,13.6-13.6v-3.8h3.9v3.8c0,9.7-7.8,17.5-17.5,17.5    H44.2c-7.5,0-13.6,6.1-13.6,13.6L30.5,73.4L30.5,73.4z"></path></g></g></svg>