<svg xmlns="http://www.w3.org/2000/svg" xmlns:xlink="http://www.w3.org/1999/xlink" version="1.1" x="0px" y="0px" viewBox="0 0 100 100" style="enable-background:new 0 0 100 100;" xml:space="preserve"><style type="text/css">
	.st0{fill:none;stroke:#000000;stroke-width:2;stroke-miterlimit:10;}
</style><path class="st0" d="M177.4,54.8"></path><g><g><path d="M22.9,33.1c-5.6,0-10.2-4.6-10.2-10.2s4.6-10.2,10.2-10.2s10.2,4.6,10.2,10.2S28.6,33.1,22.9,33.1z M22.9,16.1    c-3.7,0-6.8,3.1-6.8,6.8s3.1,6.8,6.8,6.8s6.8-3.1,6.8-6.8S26.7,16.1,22.9,16.1z"></path></g><g><path d="M22.9,60.4c-5.6,0-10.2-4.6-10.2-10.2s4.6-10.2,10.2-10.2s10.2,4.6,10.2,10.2S28.6,60.4,22.9,60.4z M22.9,43.3    c-3.7,0-6.8,3.1-6.8,6.8c0,3.7,3.1,6.8,6.8,6.8s6.8-3.1,6.8-6.8C29.7,46.4,26.7,43.3,22.9,43.3z"></path></g><g><path d="M50.2,33.1c-5.6,0-10.2-4.6-10.2-10.2s4.6-10.2,10.2-10.2s10.2,4.6,10.2,10.2S55.8,33.1,50.2,33.1z M50.2,16.1    c-3.7,0-6.8,3.1-6.8,6.8s3.1,6.8,6.8,6.8c3.7,0,6.8-3.1,6.8-6.8S53.9,16.1,50.2,16.1z"></path></g><g><path d="M50.2,60.4c-5.6,0-10.2-4.6-10.2-10.2s4.6-10.2,10.2-10.2s10.2,4.6,10.2,10.2S55.8,60.4,50.2,60.4z M50.2,43.3    c-3.7,0-6.8,3.1-6.8,6.8c0,3.7,3.1,6.8,6.8,6.8c3.7,0,6.8-3.1,6.8-6.8C57,46.4,53.9,43.3,50.2,43.3z"></path></g><g><path d="M50.2,87.6C44.5,87.6,40,83,40,77.4s4.6-10.2,10.2-10.2s10.2,4.6,10.2,10.2S55.8,87.6,50.2,87.6z M50.2,70.6    c-3.7,0-6.8,3.1-6.8,6.8s3.1,6.8,6.8,6.8c3.7,0,6.8-3.1,6.8-6.8S53.9,70.6,50.2,70.6z"></path></g><g><path d="M77.4,33.1c-5.6,0-10.2-4.6-10.2-10.2s4.6-10.2,10.2-10.2s10.2,4.6,10.2,10.2S83,33.1,77.4,33.1z M77.4,16.1    c-3.7,0-6.8,3.1-6.8,6.8s3.1,6.8,6.8,6.8s6.8-3.1,6.8-6.8S81.1,16.1,77.4,16.1z"></path></g><g><path d="M77.4,60.4c-5.6,0-10.2-4.6-10.2-10.2s4.6-10.2,10.2-10.2s10.2,4.6,10.2,10.2S83,60.4,77.4,60.4z M77.4,43.3    c-3.7,0-6.8,3.1-6.8,6.8c0,3.7,3.1,6.8,6.8,6.8s6.8-3.1,6.8-6.8C84.2,46.4,81.1,43.3,77.4,43.3z"></path></g><g><path d="M22.9,87.6c-5.6,0-10.2-4.6-10.2-10.2s4.6-10.2,10.2-10.2s10.2,4.6,10.2,10.2S28.6,87.6,22.9,87.6z M22.9,70.6    c-3.7,0-6.8,3.1-6.8,6.8s3.1,6.8,6.8,6.8s6.8-3.1,6.8-6.8S26.7,70.6,22.9,70.6z"></path></g><g><path d="M77.4,87.6c-5.6,0-10.2-4.6-10.2-10.2s4.6-10.2,10.2-10.2s10.2,4.6,10.2,10.2S83,87.6,77.4,87.6z M77.4,70.6    c-3.7,0-6.8,3.1-6.8,6.8s3.1,6.8,6.8,6.8s6.8-3.1,6.8-6.8S81.1,70.6,77.4,70.6z"></path></g></g></svg>