<svg  width="48px" style="max-width:100%" viewBox="0 0 104 94" version="1.1" xmlns="http://www.w3.org/2000/svg" xmlns:xlink="http://www.w3.org/1999/xlink">
    <!-- Generator: Sketch 52.6 (67491) - http://www.bohemiancoding.com/sketch -->
    <title>Fill 2</title>
    <desc>Created with Sketch.</desc>
    <g id="Page-1" stroke="none" stroke-width="1" fill="white" fill-rule="evenodd">
        <g id="TND_logotype_1" transform="translate(-206.000000, -97.000000)" fill="white">
            <g id="Group-4" transform="translate(206.000000, 97.000000)">
                <path d="M103.402,39.044 C103.659,38.786 103.809,38.428 103.809,38.063 C103.809,37.694 103.659,37.336 103.402,37.078 C103.141,36.818 102.782,36.671 102.417,36.671 C102.052,36.671 101.693,36.818 101.433,37.078 C101.176,37.336 101.026,37.694 101.026,38.063 C101.026,38.428 101.176,38.786 101.433,39.044 C101.693,39.305 102.052,39.451 102.417,39.451 C102.782,39.451 103.141,39.305 103.402,39.044 Z M88.392,20.132 C88.392,19.363 87.769,18.74 87,18.74 L6.525,18.74 C5.757,18.74 5.134,19.363 5.134,20.132 C5.134,20.9 5.757,21.523 6.525,21.523 L87,21.523 C87.769,21.523 88.392,20.9 88.392,20.132 Z M77.626,12.15 C77.884,11.889 78.033,11.531 78.033,11.166 C78.033,10.801 77.884,10.442 77.626,10.185 C77.365,9.924 77.007,9.774 76.642,9.774 C76.273,9.774 75.915,9.924 75.657,10.185 C75.4,10.442 75.25,10.801 75.25,11.166 C75.25,11.535 75.4,11.893 75.657,12.15 C75.915,12.411 76.273,12.557 76.642,12.557 C77.007,12.557 77.365,12.411 77.626,12.15 Z M71.745,11.167 C71.745,10.399 71.122,9.776 70.353,9.776 L5.334,9.776 C4.566,9.776 3.943,10.399 3.943,11.167 C3.943,11.935 4.566,12.558 5.334,12.558 L70.353,12.558 C71.122,12.558 71.745,11.935 71.745,11.167 Z M63.358,3.186 C63.619,2.928 63.765,2.57 63.765,2.202 C63.765,1.836 63.619,1.478 63.358,1.217 C63.101,0.959 62.743,0.81 62.378,0.81 C62.009,0.81 61.65,0.959 61.39,1.217 C61.132,1.478 60.983,1.836 60.983,2.202 C60.983,2.57 61.132,2.928 61.39,3.186 C61.65,3.447 62.009,3.593 62.378,3.593 C62.743,3.593 63.101,3.447 63.358,3.186 Z M58.503,2.202 C58.503,1.434 57.88,0.811 57.112,0.811 L1.85,0.811 C1.082,0.811 0.459,1.434 0.459,2.202 C0.459,2.971 1.082,3.594 1.85,3.594 L57.112,3.594 C57.88,3.594 58.503,2.971 58.503,2.202 Z M1.597,29.097 C1.597,29.865 2.22,30.488 2.988,30.488 L26.388,30.488 C27.157,30.488 27.78,29.865 27.78,29.097 C27.78,28.328 27.157,27.705 26.388,27.705 L2.988,27.705 C2.22,27.705 1.597,28.328 1.597,29.097 Z M3.484,38.061 C3.484,38.83 4.107,39.453 4.876,39.453 L26.055,39.453 C26.823,39.453 27.446,38.83 27.446,38.061 C27.446,37.293 26.823,36.67 26.055,36.67 L4.876,36.67 C4.107,36.67 3.484,37.293 3.484,38.061 Z M2.329,47.026 C2.329,47.795 2.952,48.418 3.72,48.418 L25.98,48.418 C26.749,48.418 27.372,47.795 27.372,47.026 C27.372,46.258 26.749,45.635 25.98,45.635 L3.72,45.635 C2.952,45.635 2.329,46.258 2.329,47.026 Z M4.199,55.991 C4.199,56.759 4.822,57.382 5.59,57.382 L26.055,57.382 C26.823,57.382 27.446,56.759 27.446,55.991 C27.446,55.222 26.823,54.599 26.055,54.599 L5.59,54.599 C4.822,54.599 4.199,55.222 4.199,55.991 Z M1.597,64.956 C1.597,65.724 2.22,66.347 2.988,66.347 L26.676,66.347 C27.445,66.347 28.068,65.724 28.068,64.956 C28.068,64.187 27.445,63.564 26.676,63.564 L2.988,63.564 C2.22,63.564 1.597,64.187 1.597,64.956 Z M5.134,73.921 C5.134,74.689 5.757,75.312 6.525,75.312 L78.374,75.312 C79.142,75.312 79.765,74.689 79.765,73.921 C79.765,73.152 79.142,72.529 78.374,72.529 L6.525,72.529 C5.757,72.529 5.134,73.152 5.134,73.921 Z M0.423,82.885 C0.423,83.654 1.046,84.277 1.815,84.277 L71.129,84.277 C71.897,84.277 72.52,83.654 72.52,82.885 C72.52,82.117 71.897,81.494 71.129,81.494 L1.815,81.494 C1.046,81.494 0.423,82.117 0.423,82.885 Z M0.459,91.85 C0.459,92.619 1.082,93.242 1.85,93.242 L56.894,93.242 C57.662,93.242 58.285,92.619 58.285,91.85 C58.285,91.082 57.662,90.459 56.894,90.459 L1.85,90.459 C1.082,90.459 0.459,91.082 0.459,91.85 Z M62.325,90.865 C62.067,91.126 61.918,91.484 61.918,91.85 C61.918,92.215 62.067,92.577 62.325,92.834 C62.582,93.091 62.94,93.241 63.309,93.241 C63.674,93.241 64.033,93.091 64.294,92.834 C64.551,92.573 64.701,92.215 64.701,91.85 C64.701,91.484 64.551,91.126 64.294,90.865 C64.033,90.608 63.674,90.458 63.309,90.458 C62.94,90.458 62.582,90.608 62.325,90.865 Z M84.676,75.312 C85.045,75.312 85.403,75.163 85.66,74.905 C85.918,74.644 86.067,74.286 86.067,73.921 C86.067,73.555 85.918,73.197 85.66,72.936 C85.403,72.679 85.041,72.529 84.676,72.529 C84.311,72.529 83.952,72.679 83.691,72.936 C83.434,73.197 83.284,73.555 83.284,73.921 C83.284,74.286 83.434,74.644 83.691,74.905 C83.952,75.163 84.311,75.312 84.676,75.312 Z M63.677,57.382 L90.98,57.382 C91.748,57.382 92.371,56.759 92.371,55.991 C92.371,55.222 91.748,54.599 90.98,54.599 L63.677,54.599 C62.909,54.599 62.286,55.222 62.286,55.991 C62.286,56.759 62.909,57.382 63.677,57.382 Z M98.272,55.007 C98.015,55.265 97.865,55.627 97.865,55.992 C97.865,56.357 98.015,56.715 98.272,56.976 C98.533,57.234 98.891,57.383 99.256,57.383 C99.622,57.383 99.98,57.234 100.241,56.976 C100.498,56.715 100.648,56.357 100.648,55.992 C100.648,55.627 100.498,55.265 100.241,55.007 C99.98,54.746 99.622,54.6 99.256,54.6 C98.891,54.6 98.533,54.746 98.272,55.007 Z M57.295,63.564 C56.527,63.564 55.903,64.187 55.903,64.956 C55.903,65.724 56.527,66.347 57.295,66.347 L89.461,66.347 C90.23,66.347 90.853,65.724 90.853,64.956 C90.853,64.187 90.23,63.564 89.461,63.564 L57.295,63.564 Z M56.764,29.097 C56.764,29.865 57.387,30.488 58.155,30.488 L84.005,30.488 C84.773,30.488 85.396,29.865 85.396,29.097 C85.396,28.328 84.773,27.705 84.005,27.705 L58.155,27.705 C57.387,27.705 56.764,28.328 56.764,29.097 Z M88.733,30.49 C89.099,30.49 89.457,30.34 89.718,30.079 C89.975,29.822 90.125,29.463 90.125,29.099 C90.125,28.73 89.975,28.372 89.718,28.114 C89.457,27.853 89.099,27.704 88.733,27.704 C88.364,27.704 88.006,27.853 87.749,28.114 C87.491,28.372 87.342,28.73 87.342,29.099 C87.342,29.463 87.491,29.822 87.749,30.079 C88.01,30.34 88.368,30.49 88.733,30.49 Z M94.989,36.67 L63.765,36.67 C62.997,36.67 62.374,37.293 62.374,38.061 C62.374,38.83 62.997,39.453 63.765,39.453 L94.989,39.453 C95.758,39.453 96.381,38.83 96.381,38.061 C96.381,37.293 95.758,36.67 94.989,36.67 Z M99.703,48.418 C100.472,48.418 101.095,47.795 101.095,47.026 C101.095,46.258 100.472,45.635 99.703,45.635 L67.2,45.635 C66.431,45.635 65.808,46.258 65.808,47.026 C65.808,47.795 66.431,48.418 67.2,48.418 L99.703,48.418 Z" id="Fill-2"></path>
            </g>
        </g>
    </g>
</svg>