<svg viewBox="0 0 104 94" xmlns="http://www.w3.org/2000/svg"><defs><linearGradient x1="-28.674%" y1="110.874%" x2="140.388%" y2="-14.074%" id="a"><stop stop-color="#231A3D" offset="0%"/><stop stop-color="#DB3839" offset="100%"/></linearGradient></defs><path d="M103.402 39.044c.257-.258.407-.616.407-.981 0-.369-.15-.727-.407-.985a1.405 1.405 0 00-.985-.407 1.4 1.4 0 00-.984.407 1.405 1.405 0 00-.407.985c0 .365.15.723.407.981a1.396 1.396 0 001.969 0zm-15.01-18.912c0-.769-.623-1.392-1.392-1.392H6.525a1.392 1.392 0 000 2.783H87c.769 0 1.392-.623 1.392-1.391zM77.626 12.15c.258-.261.407-.619.407-.984a1.397 1.397 0 00-1.391-1.392c-.369 0-.727.15-.985.411a1.401 1.401 0 00-.407.981 1.388 1.388 0 001.392 1.391c.365 0 .723-.146.984-.407zm-5.881-.983c0-.768-.623-1.391-1.392-1.391H5.334a1.391 1.391 0 000 2.782h65.019c.769 0 1.392-.623 1.392-1.391zm-8.387-7.981c.261-.258.407-.616.407-.984 0-.366-.146-.724-.407-.985a1.394 1.394 0 00-1.968 0 1.412 1.412 0 00-.407.985c0 .368.149.726.407.984.26.261.619.407.988.407.365 0 .723-.146.98-.407zm-4.855-.984c0-.768-.623-1.391-1.391-1.391H1.85a1.391 1.391 0 000 2.783h55.262c.768 0 1.391-.623 1.391-1.392zM1.597 29.097c0 .768.623 1.391 1.391 1.391h23.4a1.392 1.392 0 100-2.783h-23.4c-.768 0-1.391.623-1.391 1.392zm1.887 8.964c0 .769.623 1.392 1.392 1.392h21.179a1.392 1.392 0 000-2.783H4.876c-.769 0-1.392.623-1.392 1.391zm-1.155 8.965c0 .769.623 1.392 1.391 1.392h22.26a1.392 1.392 0 100-2.783H3.72c-.768 0-1.391.623-1.391 1.391zm1.87 8.965c0 .768.623 1.391 1.391 1.391h20.465a1.391 1.391 0 000-2.783H5.59c-.768 0-1.391.623-1.391 1.392zm-2.602 8.965c0 .768.623 1.391 1.391 1.391h23.688a1.392 1.392 0 100-2.783H2.988c-.768 0-1.391.623-1.391 1.392zm3.537 8.965c0 .768.623 1.391 1.391 1.391h71.849a1.391 1.391 0 000-2.783H6.525c-.768 0-1.391.623-1.391 1.392zM.423 82.885c0 .769.623 1.392 1.392 1.392h69.314a1.392 1.392 0 000-2.783H1.815c-.769 0-1.392.623-1.392 1.391zm.036 8.965c0 .769.623 1.392 1.391 1.392h55.044a1.392 1.392 0 000-2.783H1.85c-.768 0-1.391.623-1.391 1.391zm61.866-.985a1.412 1.412 0 00-.407.985c0 .365.149.727.407.984.257.257.615.407.984.407.365 0 .724-.15.985-.407.257-.261.407-.619.407-.984 0-.366-.15-.724-.407-.985a1.418 1.418 0 00-.985-.407c-.369 0-.727.15-.984.407zm22.351-15.553c.369 0 .727-.149.984-.407.258-.261.407-.619.407-.984 0-.366-.149-.724-.407-.985a1.408 1.408 0 00-.984-.407c-.365 0-.724.15-.985.407a1.416 1.416 0 00-.407.985c0 .365.15.723.407.984.261.258.62.407.985.407zm-20.999-17.93H90.98a1.391 1.391 0 000-2.783H63.677a1.392 1.392 0 000 2.783zm34.595-2.375c-.257.258-.407.62-.407.985s.15.723.407.984c.261.258.619.407.984.407.366 0 .724-.149.985-.407.257-.261.407-.619.407-.984s-.15-.727-.407-.985a1.398 1.398 0 00-1.969 0zm-40.977 8.557a1.392 1.392 0 000 2.783h32.166a1.392 1.392 0 100-2.783H57.295zm-.531-34.467c0 .768.623 1.391 1.391 1.391h25.85a1.391 1.391 0 000-2.783h-25.85c-.768 0-1.391.623-1.391 1.392zm31.969 1.393a1.4 1.4 0 001.392-1.391c0-.369-.15-.727-.407-.985a1.387 1.387 0 00-1.969 0 1.4 1.4 0 00-.407.985 1.396 1.396 0 001.391 1.391zm6.256 6.18H63.765a1.391 1.391 0 000 2.783h31.224a1.392 1.392 0 100-2.783zm4.714 11.748a1.392 1.392 0 100-2.783H67.2a1.392 1.392 0 100 2.783h32.503z" fill="url(#a)" fill-rule="evenodd"/></svg>