<svg viewBox="0 0 104 94" xmlns="http://www.w3.org/2000/svg"><path d="M103.402 39.044c.257-.258.407-.616.407-.981 0-.369-.15-.727-.407-.985-.261-.26-.62-.407-.985-.407s-.724.147-.984.407c-.257.258-.407.616-.407.985 0 .365.15.723.407.981.26.261.619.407.984.407s.724-.146.985-.407zm-15.01-18.912c0-.769-.623-1.392-1.392-1.392H6.525c-.768 0-1.391.623-1.391 1.392 0 .768.623 1.391 1.391 1.391H87c.769 0 1.392-.623 1.392-1.391zM77.626 12.15c.258-.261.407-.619.407-.984s-.149-.724-.407-.981c-.261-.261-.619-.411-.984-.411-.369 0-.727.15-.985.411-.257.257-.407.616-.407.981 0 .369.15.727.407.984.258.261.616.407.985.407.365 0 .723-.146.984-.407zm-5.881-.983c0-.768-.623-1.391-1.392-1.391H5.334c-.768 0-1.391.623-1.391 1.391s.623 1.391 1.391 1.391h65.019c.769 0 1.392-.623 1.392-1.391zm-8.387-7.981c.261-.258.407-.616.407-.984 0-.366-.146-.724-.407-.985-.257-.258-.615-.407-.98-.407-.369 0-.728.149-.988.407-.258.261-.407.619-.407.985 0 .368.149.726.407.984.26.261.619.407.988.407.365 0 .723-.146.98-.407zm-4.855-.984c0-.768-.623-1.391-1.391-1.391H1.85c-.768 0-1.391.623-1.391 1.391 0 .769.623 1.392 1.391 1.392h55.262c.768 0 1.391-.623 1.391-1.392zM1.597 29.097c0 .768.623 1.391 1.391 1.391h23.4c.769 0 1.392-.623 1.392-1.391 0-.769-.623-1.392-1.392-1.392h-23.4c-.768 0-1.391.623-1.391 1.392zm1.887 8.964c0 .769.623 1.392 1.392 1.392h21.179c.768 0 1.391-.623 1.391-1.392 0-.768-.623-1.391-1.391-1.391H4.876c-.769 0-1.392.623-1.392 1.391zm-1.155 8.965c0 .769.623 1.392 1.391 1.392h22.26c.769 0 1.392-.623 1.392-1.392 0-.768-.623-1.391-1.392-1.391H3.72c-.768 0-1.391.623-1.391 1.391zm1.87 8.965c0 .768.623 1.391 1.391 1.391h20.465c.768 0 1.391-.623 1.391-1.391 0-.769-.623-1.392-1.391-1.392H5.59c-.768 0-1.391.623-1.391 1.392zm-2.602 8.965c0 .768.623 1.391 1.391 1.391h23.688c.769 0 1.392-.623 1.392-1.391 0-.769-.623-1.392-1.392-1.392H2.988c-.768 0-1.391.623-1.391 1.392zm3.537 8.965c0 .768.623 1.391 1.391 1.391h71.849c.768 0 1.391-.623 1.391-1.391 0-.769-.623-1.392-1.391-1.392H6.525c-.768 0-1.391.623-1.391 1.392zM.423 82.885c0 .769.623 1.392 1.392 1.392h69.314c.768 0 1.391-.623 1.391-1.392 0-.768-.623-1.391-1.391-1.391H1.815c-.769 0-1.392.623-1.392 1.391zm.036 8.965c0 .769.623 1.392 1.391 1.392h55.044c.768 0 1.391-.623 1.391-1.392 0-.768-.623-1.391-1.391-1.391H1.85c-.768 0-1.391.623-1.391 1.391zm61.866-.985c-.258.261-.407.619-.407.985 0 .365.149.727.407.984.257.257.615.407.984.407.365 0 .724-.15.985-.407.257-.261.407-.619.407-.984 0-.366-.15-.724-.407-.985-.261-.257-.62-.407-.985-.407-.369 0-.727.15-.984.407zm22.351-15.553c.369 0 .727-.149.984-.407.258-.261.407-.619.407-.984 0-.366-.149-.724-.407-.985-.257-.257-.619-.407-.984-.407s-.724.15-.985.407c-.257.261-.407.619-.407.985 0 .365.15.723.407.984.261.258.62.407.985.407zm-20.999-17.93H90.98c.768 0 1.391-.623 1.391-1.391 0-.769-.623-1.392-1.391-1.392H63.677c-.768 0-1.391.623-1.391 1.392 0 .768.623 1.391 1.391 1.391zm34.595-2.375c-.257.258-.407.62-.407.985s.15.723.407.984c.261.258.619.407.984.407.366 0 .724-.149.985-.407.257-.261.407-.619.407-.984s-.15-.727-.407-.985c-.261-.261-.619-.407-.985-.407-.365 0-.723.146-.984.407zm-40.977 8.557c-.768 0-1.392.623-1.392 1.392 0 .768.624 1.391 1.392 1.391h32.166c.769 0 1.392-.623 1.392-1.391 0-.769-.623-1.392-1.392-1.392H57.295zm-.531-34.467c0 .768.623 1.391 1.391 1.391h25.85c.768 0 1.391-.623 1.391-1.391 0-.769-.623-1.392-1.391-1.392h-25.85c-.768 0-1.391.623-1.391 1.392zm31.969 1.393c.366 0 .724-.15.985-.411.257-.257.407-.616.407-.98 0-.369-.15-.727-.407-.985-.261-.261-.619-.41-.985-.41-.369 0-.727.149-.984.41-.258.258-.407.616-.407.985 0 .364.149.723.407.98.261.261.619.411.984.411zm6.256 6.18H63.765c-.768 0-1.391.623-1.391 1.391 0 .769.623 1.392 1.391 1.392h31.224c.769 0 1.392-.623 1.392-1.392 0-.768-.623-1.391-1.392-1.391zm4.714 11.748c.769 0 1.392-.623 1.392-1.392 0-.768-.623-1.391-1.392-1.391H67.2c-.769 0-1.392.623-1.392 1.391 0 .769.623 1.392 1.392 1.392h32.503z" fill="#980A38" fill-rule="evenodd"/></svg>