<?xml version="1.0" standalone="no"?>
<!DOCTYPE svg PUBLIC "-//W3C//DTD SVG 20010904//EN"
 "http://www.w3.org/TR/2001/REC-SVG-20010904/DTD/svg10.dtd">
<svg version="1.0" xmlns="http://www.w3.org/2000/svg"
 width="16.000000pt" height="16.000000pt" viewBox="0 0 16.000000 16.000000"
 preserveAspectRatio="xMidYMid meet">
<metadata>
Created by potrace 1.11, written by Peter Selinger 2001-2013
</metadata>
<g transform="translate(0.000000,16.000000) scale(0.006250,-0.006250)"
fill="#000000" stroke="none">
<path d="M1081 1999 c-3 -10 -6 -196 -5 -413 0 -318 -2 -396 -13 -400 -14 -6
-18 -42 -4 -50 4 -3 6 7 3 22 -3 15 -1 23 4 19 14 -14 10 -101 -6 -115 -8 -8
-9 -11 -2 -7 7 4 12 -1 13 -14 1 -12 2 -27 3 -33 1 -7 -5 -19 -14 -26 -8 -8
-9 -11 -2 -7 8 4 12 -3 13 -22 1 -15 2 -39 3 -53 0 -14 -6 -31 -14 -38 -8 -8
-9 -11 -2 -7 8 4 12 -3 13 -22 0 -15 1 -45 2 -66 1 -23 -2 -37 -10 -37 -6 0
-14 -4 -17 -9 -4 -5 4 -7 16 -4 23 5 23 5 3 -11 -11 -10 -15 -15 -8 -11 8 4
13 -9 15 -42 l3 -48 310 -2 c335 -1 409 6 545 52 178 61 319 181 395 339 53
111 73 208 70 342 -3 112 -7 136 -35 225 -54 175 -191 315 -379 388 -137 53
-230 63 -580 65 -289 2 -314 1 -320 -15z m636 -288 c70 -14 167 -59 209 -98
84 -79 119 -180 112 -328 -4 -81 -10 -112 -30 -157 -51 -110 -139 -179 -274
-213 -57 -14 -285 -27 -311 -17 -10 3 -13 95 -13 411 0 224 2 410 5 413 8 8
242 0 302 -11z"/>
<path d="M201 1994 c0 -11 3 -14 6 -6 3 7 2 16 -1 19 -3 4 -6 -2 -5 -13z"/>
<path d="M250 1998 c0 -4 9 -7 20 -5 29 5 33 13 5 13 -14 0 -25 -4 -25 -8z"/>
<path d="M326 1995 c18 -14 18 -15 -5 -12 -17 1 -24 -4 -27 -20 -5 -29 10 -37
27 -15 13 15 12 16 -3 4 -15 -12 -17 -11 -15 7 1 13 8 19 20 18 11 -1 21 5 22
13 2 10 -5 17 -17 17 -20 2 -20 1 -2 -12z"/>
<path d="M360 1998 c0 -4 4 -8 9 -8 6 0 12 4 15 8 3 5 -1 9 -9 9 -8 0 -15 -4
-15 -9z"/>
<path d="M396 1995 c-9 -26 -7 -32 5 -12 6 10 9 21 6 23 -2 3 -7 -2 -11 -11z"/>
<path d="M471 1990 c14 -31 19 -36 19 -24 0 6 -7 19 -16 30 -14 18 -14 18 -3
-6z"/>
<path d="M490 1998 c0 -4 9 -7 20 -5 29 5 33 13 5 13 -14 0 -25 -4 -25 -8z"/>
<path d="M556 2002 c2 -3 -4 -11 -14 -18 -19 -15 -5 -19 18 -4 10 6 12 12 4
18 -6 5 -9 7 -8 4z"/>
<path d="M230 1995 c0 -5 5 -17 10 -25 5 -8 10 -10 10 -5 0 6 -5 17 -10 25 -5
8 -10 11 -10 5z"/>
<path d="M440 1992 c0 -7 -6 -11 -12 -9 -20 3 -21 -38 -2 -54 10 -8 15 -9 11
-2 -4 7 2 18 15 27 12 9 18 16 14 16 -5 0 -18 -7 -28 -17 -17 -15 -18 -15 -18
6 0 12 4 20 9 16 11 -6 26 13 17 22 -3 4 -6 1 -6 -5z"/>
<path d="M180 1981 c0 -6 4 -13 10 -16 6 -3 7 1 4 9 -7 18 -14 21 -14 7z"/>
<path d="M271 1964 c0 -11 3 -14 6 -6 3 7 2 16 -1 19 -3 4 -6 -2 -5 -13z"/>
<path d="M511 1970 c0 -8 4 -22 9 -30 12 -18 12 -2 0 25 -6 13 -9 15 -9 5z"/>
<path d="M210 1960 c0 -5 5 -10 10 -10 6 0 10 5 10 10 0 6 -4 10 -10 10 -5 0
-10 -4 -10 -10z"/>
<path d="M358 1963 c7 -3 16 -2 19 1 4 3 -2 6 -13 5 -11 0 -14 -3 -6 -6z"/>
<path d="M555 1960 c-13 -6 -15 -9 -5 -9 8 0 22 4 30 9 18 12 2 12 -25 0z"/>
<path d="M254 1923 c3 -22 8 -28 26 -28 13 0 25 7 27 15 3 9 1 11 -4 5 -4 -5
-15 -11 -25 -13 -12 -2 -15 3 -11 17 2 10 0 22 -5 25 -7 4 -10 -4 -8 -21z"/>
<path d="M332 1938 c-17 -17 3 -46 30 -44 17 1 23 7 23 25 0 27 -33 39 -53 19z
m45 -20 c-1 -18 -27 -21 -39 -3 -10 14 0 24 21 22 12 -1 19 -8 18 -19z"/>
<path d="M457 1942 c-11 -22 0 -45 23 -49 18 -2 21 -1 10 6 -8 5 -17 8 -21 5
-4 -2 -7 4 -6 15 1 12 8 19 19 18 11 -1 16 -7 13 -15 -2 -7 -1 -11 4 -8 5 3
11 -1 15 -9 3 -8 -3 -19 -12 -24 -9 -6 -13 -11 -8 -11 5 0 18 7 28 17 17 15
18 15 18 -5 0 -12 -5 -21 -12 -19 -6 1 -14 -6 -16 -15 -2 -10 1 -18 7 -18 6 0
8 7 4 15 -3 10 0 15 8 13 9 -2 14 6 14 20 0 12 -4 21 -8 20 -5 -2 -14 8 -22
21 -12 23 -50 39 -58 23z"/>
<path d="M575 1941 c-3 -5 0 -13 6 -17 8 -5 9 -3 4 6 -6 10 -4 12 9 7 10 -4
15 -3 11 3 -8 13 -22 13 -30 1z"/>
<path d="M197 1926 c-3 -7 0 -22 8 -32 7 -11 13 -23 13 -29 0 -5 6 -11 14 -13
9 -2 8 0 -2 7 -8 6 -11 11 -7 11 5 0 1 10 -7 21 -8 12 -12 28 -9 35 3 8 3 14
0 14 -3 0 -7 -6 -10 -14z"/>
<path d="M226 1925 c-3 -8 -1 -15 4 -15 6 0 10 7 10 15 0 8 -2 15 -4 15 -2 0
-6 -7 -10 -15z"/>
<path d="M400 1920 c0 -5 5 -10 11 -10 5 0 7 5 4 10 -3 6 -8 10 -11 10 -2 0
-4 -4 -4 -10z"/>
<path d="M545 1920 c3 -5 11 -10 16 -10 6 0 7 5 4 10 -3 6 -11 10 -16 10 -6 0
-7 -4 -4 -10z"/>
<path d="M600 1912 c0 -7 -6 -11 -12 -9 -8 1 -13 -8 -13 -20 0 -13 4 -22 8
-20 5 1 15 -10 23 -25 13 -24 17 -26 34 -16 10 7 17 14 15 17 -3 2 -12 -2 -22
-10 -15 -12 -16 -12 -10 4 4 10 3 16 -2 13 -5 -3 -12 1 -15 10 -3 8 -10 12
-16 9 -5 -3 -10 3 -10 15 0 12 4 19 9 15 11 -6 26 13 17 22 -3 4 -6 1 -6 -5z"/>
<path d="M431 1905 c1 -19 18 -51 18 -35 0 8 -4 22 -9 30 -5 8 -9 11 -9 5z"/>
<path d="M180 1895 c0 -5 5 -17 10 -25 5 -8 10 -10 10 -5 0 6 -5 17 -10 25 -5
8 -10 11 -10 5z"/>
<path d="M236 1887 c3 -10 9 -15 12 -12 3 3 0 11 -7 18 -10 9 -11 8 -5 -6z"/>
<path d="M390 1879 c0 -5 4 -8 9 -4 5 3 12 1 16 -5 3 -5 1 -10 -6 -10 -7 0
-10 -3 -6 -6 10 -11 26 6 20 21 -6 17 -33 20 -33 4z"/>
<path d="M610 1881 c0 -14 29 -21 36 -9 4 7 3 8 -4 4 -7 -4 -12 -2 -12 3 0 6
-4 11 -10 11 -5 0 -10 -4 -10 -9z"/>
<path d="M264 1865 c-10 -8 -14 -14 -9 -14 6 0 19 6 29 14 11 8 15 15 10 15
-6 0 -19 -7 -30 -15z"/>
<path d="M348 1873 c10 -4 10 -8 0 -21 -10 -14 -10 -15 2 -4 21 18 32 14 18
-7 -7 -11 -17 -19 -22 -18 -6 1 -11 -7 -12 -18 -1 -15 0 -16 3 -2 3 9 8 15 13
12 4 -3 15 6 24 20 15 23 15 25 -3 35 -11 5 -23 10 -28 9 -4 0 -2 -3 5 -6z"/>
<path d="M475 1864 c5 -18 2 -21 -18 -19 -13 2 -30 -1 -38 -6 -9 -6 -2 -7 20
-4 30 5 33 4 21 -10 -7 -8 -8 -15 -4 -15 19 0 35 40 24 58 -10 15 -10 14 -5
-4z"/>
<path d="M310 1860 c0 -5 5 -10 10 -10 6 0 10 5 10 10 0 6 -4 10 -10 10 -5 0
-10 -4 -10 -10z"/>
<path d="M184 1843 c4 -4 16 -8 28 -10 28 -4 18 6 -12 12 -12 2 -20 1 -16 -2z"/>
<path d="M275 1840 c-8 -13 4 -32 16 -25 5 4 9 -4 9 -16 0 -21 -1 -22 -20 -4
-11 10 -22 16 -24 14 -2 -2 7 -12 20 -22 21 -16 25 -16 30 -3 8 21 -3 49 -16
41 -5 -3 -10 -2 -10 4 0 5 6 12 13 14 9 4 9 6 0 6 -6 1 -15 -3 -18 -9z"/>
<path d="M555 1840 c3 -5 11 -10 16 -10 6 0 7 5 4 10 -3 6 -11 10 -16 10 -6 0
-7 -4 -4 -10z"/>
<path d="M236 1825 c-9 -26 -7 -32 5 -12 6 10 9 21 6 23 -2 3 -7 -2 -11 -11z"/>
<path d="M390 1835 c0 -5 5 -17 10 -25 5 -8 10 -10 10 -5 0 6 -5 17 -10 25 -5
8 -10 11 -10 5z"/>
<path d="M490 1821 c0 -6 4 -11 9 -11 5 0 12 -8 14 -17 4 -15 5 -15 6 -2 0 9
-6 22 -14 29 -10 9 -15 9 -15 1z"/>
<path d="M536 1821 c-12 -18 2 -46 22 -46 12 0 21 2 20 5 -1 3 4 16 11 30 11
23 11 24 -3 6 -9 -10 -13 -23 -10 -27 3 -5 -3 -9 -13 -9 -11 0 -19 8 -20 19
-1 14 3 18 13 14 8 -3 14 -3 14 0 0 9 -29 16 -34 8z"/>
<path d="M670 1820 c0 -5 5 -10 11 -10 5 0 7 5 4 10 -3 6 -8 10 -11 10 -2 0
-4 -4 -4 -10z"/>
<path d="M201 1807 c-1 -10 -5 -15 -11 -12 -6 4 -7 -1 -3 -11 6 -15 7 -15 15
0 5 9 7 22 4 29 -2 7 -5 4 -5 -6z"/>
<path d="M431 1810 c0 -8 4 -22 9 -30 12 -18 12 -2 0 25 -6 13 -9 15 -9 5z"/>
<path d="M359 1793 c-13 -17 -13 -17 6 -3 11 8 22 16 24 17 2 2 0 3 -6 3 -6 0
-17 -8 -24 -17z"/>
<path d="M601 1794 c0 -11 3 -14 6 -6 3 7 2 16 -1 19 -3 4 -6 -2 -5 -13z"/>
<path d="M635 1800 c-4 -6 -4 -14 -1 -17 3 -4 6 -1 6 5 0 7 5 12 10 12 6 0 9
-6 8 -12 -2 -7 8 -14 22 -15 24 -2 24 -2 2 5 -13 4 -23 11 -22 17 2 14 -17 18
-25 5z"/>
<path d="M460 1796 c0 -2 7 -6 15 -10 8 -3 15 -1 15 4 0 6 -7 10 -15 10 -8 0
-15 -2 -15 -4z"/>
<path d="M213 1773 c-8 -20 2 -36 24 -39 29 -5 50 21 34 40 -15 17 -51 17 -58
-1z m52 -13 c0 -9 -10 -15 -22 -16 -16 -1 -23 4 -23 16 0 12 7 17 23 16 12 -1
22 -7 22 -16z"/>
<path d="M377 1784 c-10 -10 24 -54 36 -47 6 4 8 0 4 -11 -4 -10 -3 -15 3 -11
6 3 10 1 10 -6 0 -7 3 -10 6 -7 8 8 -15 50 -25 44 -4 -3 -12 4 -19 14 -10 16
-8 18 8 17 11 -1 22 -7 24 -14 3 -7 10 -13 16 -13 6 0 4 8 -6 17 -18 18 -47
27 -57 17z"/>
<path d="M310 1760 c0 -5 5 -10 10 -10 6 0 10 5 10 10 0 6 -4 10 -10 10 -5 0
-10 -4 -10 -10z"/>
<path d="M350 1763 c5 -2 10 -9 10 -14 0 -6 -4 -8 -9 -4 -16 9 -24 -16 -10
-30 12 -12 17 -11 33 1 11 8 15 14 9 14 -7 0 -15 -5 -18 -10 -4 -6 -11 -8 -16
-5 -13 9 -11 25 4 23 6 -2 12 3 12 11 0 8 -6 15 -13 17 -7 1 -8 0 -2 -3z"/>
<path d="M492 1758 c3 -7 14 -14 26 -16 12 -2 20 -7 17 -12 -3 -4 6 -15 20
-24 23 -15 25 -15 35 5 7 11 9 23 6 27 -3 3 -6 0 -6 -7 0 -7 -4 -9 -10 -6 -6
4 -7 -1 -3 -10 5 -15 3 -15 -15 -4 -11 7 -20 18 -19 23 1 6 -8 12 -21 14 -12
2 -20 8 -17 13 4 5 1 9 -5 9 -7 0 -10 -6 -8 -12z"/>
<path d="M578 1759 c-7 -4 -16 -5 -22 -2 -5 3 -6 1 -2 -6 4 -6 12 -9 17 -6 5
4 19 8 30 10 12 3 24 7 26 9 8 8 -36 3 -49 -5z"/>
<path d="M647 1759 c7 -7 15 -10 18 -7 3 3 -2 9 -12 12 -14 6 -15 5 -6 -5z"/>
<path d="M188 1745 c5 -11 12 -27 15 -35 5 -13 6 -13 6 1 1 8 -6 24 -15 35
-15 19 -15 19 -6 -1z"/>
<path d="M271 1729 c-13 -10 -20 -19 -15 -19 4 0 16 7 26 17 17 15 18 15 18
-5 0 -12 -6 -21 -12 -19 -7 1 -13 -4 -13 -12 0 -8 6 -15 13 -17 7 -1 8 0 2 3
-14 7 -13 24 2 21 14 -4 23 31 11 42 -4 5 -19 0 -32 -11z"/>
<path d="M456 1741 c-11 -18 2 -46 22 -45 14 0 20 -5 19 -17 -1 -12 -8 -17
-21 -16 -15 1 -20 -4 -21 -20 0 -13 4 -22 9 -22 5 0 13 -5 18 -13 8 -10 9 -10
5 2 -2 8 -9 14 -15 13 -6 -2 -10 6 -9 17 1 13 8 18 21 17 15 -2 20 4 21 23 0
19 -4 24 -20 22 -15 -2 -21 3 -22 18 -2 18 1 19 13 10 8 -8 14 -8 14 -2 0 13
-28 24 -34 13z"/>
<path d="M617 1743 c-11 -23 0 -46 21 -48 22 -2 50 30 38 43 -3 3 -6 -1 -6 -8
0 -10 -5 -9 -18 3 -20 19 -29 21 -35 10z m31 -15 c17 -17 15 -24 -7 -24 -13 0
-19 7 -18 18 1 21 8 23 25 6z"/>
<path d="M699 1748 c-7 -33 -7 -48 0 -53 5 -3 13 0 17 6 4 7 3 9 -4 5 -7 -4
-10 1 -9 14 1 21 12 27 20 10 3 -6 4 -5 3 2 -2 10 -25 25 -27 16z"/>
<path d="M511 1713 c7 -12 15 -20 18 -17 3 2 -3 12 -13 22 -17 16 -18 16 -5
-5z"/>
<path d="M230 1715 c0 -5 5 -17 10 -25 5 -8 10 -10 10 -5 0 6 -5 17 -10 25 -5
8 -10 11 -10 5z"/>
<path d="M183 1693 c1 -15 6 -20 20 -17 11 2 22 6 26 10 3 4 -2 4 -11 1 -11
-4 -21 0 -27 11 -9 15 -10 14 -8 -5z"/>
<path d="M316 1693 c-6 -14 -5 -15 5 -6 7 7 10 15 7 18 -3 3 -9 -2 -12 -12z"/>
<path d="M379 1705 c-7 -32 -1 -50 17 -48 13 1 20 -4 21 -18 1 -11 -2 -17 -7
-14 -5 3 -14 -4 -20 -15 -7 -13 -7 -20 0 -20 5 0 10 7 10 16 0 8 4 13 9 9 6
-3 15 3 20 14 12 22 -7 45 -31 36 -9 -4 -14 1 -14 15 0 15 5 19 21 14 16 -4
17 -3 5 5 -16 12 -29 14 -31 6z"/>
<path d="M730 1706 c0 -2 7 -7 16 -10 8 -3 12 -2 9 4 -6 10 -25 14 -25 6z"/>
<path d="M340 1680 c0 -5 5 -10 10 -10 6 0 10 5 10 10 0 6 -4 10 -10 10 -5 0
-10 -4 -10 -10z"/>
<path d="M430 1680 c0 -5 5 -10 10 -10 6 0 10 5 10 10 0 6 -4 10 -10 10 -5 0
-10 -4 -10 -10z"/>
<path d="M530 1680 c-8 -5 -10 -10 -5 -10 6 0 17 5 25 10 8 5 11 10 5 10 -5 0
-17 -5 -25 -10z"/>
<path d="M596 1675 c4 -8 8 -15 10 -15 2 0 4 7 4 15 0 8 -4 15 -10 15 -5 0 -7
-7 -4 -15z"/>
<path d="M672 1674 c2 -8 8 -15 13 -14 6 1 13 -9 17 -22 7 -22 7 -22 5 2 -2
15 -8 24 -16 22 -8 -2 -11 3 -8 13 4 8 2 15 -4 15 -6 0 -9 -7 -7 -16z"/>
<path d="M714 1678 c-4 -6 -3 -8 4 -4 5 3 12 1 14 -6 5 -14 48 -22 48 -9 0 6
-9 8 -20 6 -13 -2 -20 2 -20 11 0 17 -16 19 -26 2z"/>
<path d="M570 1671 c0 -5 5 -13 10 -16 6 -3 10 -2 10 4 0 5 -4 13 -10 16 -5 3
-10 2 -10 -4z"/>
<path d="M630 1670 c0 -5 5 -10 10 -10 6 0 10 5 10 10 0 6 -4 10 -10 10 -5 0
-10 -4 -10 -10z"/>
<path d="M215 1660 c-3 -5 -3 -10 0 -10 4 0 -3 -13 -14 -28 -22 -31 -14 -59
14 -49 9 4 13 11 10 17 -4 6 4 9 17 7 13 -1 22 3 21 10 -2 6 6 11 17 10 13 -1
18 -8 17 -21 -1 -15 4 -20 22 -20 14 0 26 6 29 14 2 9 0 11 -5 5 -16 -19 -42
-14 -40 8 2 16 -4 21 -23 22 -15 0 -24 -5 -23 -12 2 -8 -6 -12 -20 -10 -13 1
-21 -3 -19 -10 1 -7 -2 -13 -6 -13 -20 0 -20 15 -1 41 11 16 17 29 12 29 -4 0
-1 5 7 10 9 6 10 10 3 10 -6 0 -15 -4 -18 -10z"/>
<path d="M264 1655 c11 -8 24 -15 30 -15 5 0 1 7 -10 15 -10 8 -23 14 -29 14
-5 0 -1 -6 9 -14z"/>
<path d="M310 1660 c0 -5 5 -10 10 -10 6 0 10 5 10 10 0 6 -4 10 -10 10 -5 0
-10 -4 -10 -10z"/>
<path d="M550 1661 c0 -6 4 -13 10 -16 6 -3 7 1 4 9 -7 18 -14 21 -14 7z"/>
<path d="M186 1645 c-9 -26 -7 -32 5 -12 6 10 9 21 6 23 -2 3 -7 -2 -11 -11z"/>
<path d="M236 1633 c-6 -14 -5 -15 5 -6 7 7 10 15 7 18 -3 3 -9 -2 -12 -12z"/>
<path d="M334 1639 c-3 -6 -1 -16 5 -22 6 -6 11 -7 11 -1 0 5 5 2 11 -6 9 -13
10 -13 6 0 -2 8 -10 14 -16 13 -6 -2 -11 2 -11 8 0 7 10 9 28 5 20 -5 23 -4
12 4 -20 13 -37 13 -46 -1z"/>
<path d="M500 1640 c-11 -8 -8 -9 13 -4 23 5 26 4 21 -12 -6 -15 -4 -16 6 -7
25 23 -9 43 -40 23z"/>
<path d="M595 1640 c-13 -6 -15 -9 -5 -9 8 0 22 4 30 9 18 12 2 12 -25 0z"/>
<path d="M651 1647 c2 -1 13 -9 24 -17 19 -14 19 -14 6 3 -7 9 -18 17 -24 17
-6 0 -8 -1 -6 -3z"/>
<path d="M747 1633 c9 -3 9 -10 -3 -28 -16 -25 -9 -35 22 -31 38 6 16 69 -23
65 -4 0 -2 -3 4 -6z m30 -31 c1 -11 -6 -18 -18 -19 -16 -2 -17 1 -9 18 13 24
25 25 27 1z"/>
<path d="M557 1615 c-8 -20 9 -28 30 -15 16 9 15 10 -4 5 -18 -5 -22 -3 -17 9
3 9 4 16 1 16 -3 0 -7 -7 -10 -15z"/>
<path d="M618 1623 c-13 -24 -2 -47 22 -47 20 0 25 5 25 24 0 18 -6 26 -22 28
-11 2 -23 0 -25 -5z m39 -21 c1 -11 -5 -18 -17 -18 -12 0 -18 7 -17 18 1 10 8
18 17 18 9 0 16 -8 17 -18z"/>
<path d="M716 1615 c-3 -9 -12 -12 -23 -9 -16 5 -16 4 1 -6 15 -10 20 -9 27 1
9 15 12 29 5 29 -2 0 -6 -7 -10 -15z"/>
<path d="M506 1605 c-3 -8 -1 -15 4 -15 6 0 10 7 10 15 0 8 -2 15 -4 15 -2 0
-6 -7 -10 -15z"/>
<path d="M421 1596 c-10 -12 -8 -17 7 -25 15 -8 23 -7 32 4 7 9 10 18 6 22 -3
3 -6 2 -6 -3 0 -5 -10 -10 -22 -11 -22 -2 -22 -1 -4 13 11 8 15 14 9 14 -6 0
-16 -6 -22 -14z"/>
<path d="M270 1583 c0 -7 5 -15 10 -18 6 -4 8 -11 5 -16 -9 -13 -25 -11 -22 3
1 6 -6 14 -15 16 -10 2 -18 -1 -18 -7 0 -6 7 -7 17 -4 10 4 14 2 9 -5 -10 -17
14 -26 29 -11 12 12 11 17 -1 33 -8 11 -14 15 -14 9z"/>
<path d="M355 1569 c-4 -12 -2 -26 3 -31 13 -13 35 0 26 14 -5 7 -1 9 9 5 10
-3 17 -2 17 4 0 6 -8 9 -17 7 -10 -2 -17 -10 -15 -16 1 -7 -3 -12 -9 -12 -7 0
-9 10 -5 25 8 30 0 34 -9 4z"/>
<path d="M476 1574 c-8 -20 -8 -24 2 -24 4 0 8 9 9 20 2 24 -3 26 -11 4z"/>
<path d="M516 1575 c-11 -8 -15 -15 -10 -15 6 0 19 7 30 15 10 8 15 14 9 14
-5 0 -19 -6 -29 -14z"/>
<path d="M590 1586 c0 -5 7 -18 17 -28 15 -17 15 -18 -5 -18 -12 0 -21 5 -19
12 1 6 -6 14 -15 16 -10 2 -18 -1 -18 -7 0 -6 7 -7 17 -4 11 4 14 3 9 -5 -9
-16 19 -26 42 -16 9 4 20 6 25 6 4 -1 7 3 7 9 0 6 -7 9 -15 5 -8 -3 -21 4 -30
17 -8 12 -15 17 -15 13z"/>
<path d="M676 1575 c-3 -9 -6 -22 -5 -28 0 -7 5 -1 10 12 5 13 8 26 5 28 -2 2
-6 -3 -10 -12z"/>
<path d="M799 1580 c-3 -20 -4 -25 -13 -38 -5 -8 -3 -18 4 -25 9 -9 15 -7 26
8 8 11 17 19 20 17 3 -2 8 -1 11 1 3 3 -3 4 -12 3 -9 -1 -20 -9 -25 -16 -5 -8
-12 -11 -15 -8 -4 4 -3 13 1 20 10 16 16 48 9 48 -3 0 -6 -4 -6 -10z"/>
<path d="M700 1566 c0 -2 7 -6 15 -10 8 -3 15 -1 15 4 0 6 -7 10 -15 10 -8 0
-15 -2 -15 -4z"/>
<path d="M187 1544 c2 -7 12 -10 21 -7 14 5 15 3 5 -8 -7 -7 -13 -17 -13 -23
0 -5 6 -1 14 9 16 23 14 31 -13 38 -13 3 -18 1 -14 -9z"/>
<path d="M310 1550 c0 -5 5 -10 10 -10 6 0 10 5 10 10 0 6 -4 10 -10 10 -5 0
-10 -4 -10 -10z"/>
<path d="M748 1549 c-17 -9 -17 -12 -2 -34 9 -14 20 -22 25 -19 5 3 9 1 9 -5
0 -15 -18 -23 -25 -11 -3 5 -11 10 -18 10 -6 0 -2 -6 9 -14 16 -12 21 -13 33
-1 13 13 7 40 -8 31 -4 -3 -13 5 -20 16 -11 18 -11 20 4 15 9 -4 14 -3 10 2
-3 5 1 12 7 14 7 3 9 6 3 6 -5 0 -18 -4 -27 -10z"/>
<path d="M416 1542 c-2 -4 2 -16 10 -27 8 -10 14 -14 14 -9 0 6 -6 16 -12 23
-11 10 -9 12 7 9 11 -1 26 -10 33 -18 11 -13 12 -12 3 5 -9 20 -46 31 -55 17z"/>
<path d="M494 1535 c-3 -8 -4 -20 -2 -27 3 -7 7 -1 10 15 6 29 1 36 -8 12z"/>
<path d="M527 1544 c7 -3 9 -13 6 -22 -4 -14 -3 -14 5 -2 12 16 7 30 -11 29
-9 0 -9 -2 0 -5z"/>
<path d="M701 1533 c12 -15 12 -16 -4 -10 -11 4 -16 3 -12 -4 4 -6 14 -8 22
-5 11 5 13 0 8 -17 -5 -19 -4 -19 5 -5 11 18 -5 58 -24 58 -4 0 -2 -8 5 -17z"/>
<path d="M235 1520 c-3 -6 -1 -18 5 -27 9 -16 10 -15 5 4 -5 18 -3 22 9 17 9
-3 16 -4 16 -1 0 10 -30 16 -35 7z"/>
<path d="M286 1522 c-7 -7 5 -32 16 -32 6 0 4 7 -3 16 -12 15 -11 16 6 11 11
-4 26 -3 33 2 8 5 2 8 -18 8 -16 0 -32 -2 -34 -5z"/>
<path d="M385 1521 c-6 -5 -19 -11 -30 -13 -11 -2 -19 -8 -17 -13 2 -6 -7 -13
-20 -17 -22 -7 -22 -7 2 -5 14 1 24 8 23 15 -2 6 5 12 15 12 10 0 24 6 31 13
11 10 12 7 7 -13 -6 -22 -5 -23 5 -7 12 21 -1 43 -16 28z"/>
<path d="M557 1523 c-11 -11 -8 -23 6 -23 7 0 13 -9 14 -20 1 -11 -2 -18 -7
-15 -5 3 -11 1 -14 -4 -4 -5 1 -8 10 -7 28 4 37 33 14 49 -11 7 -17 17 -13 20
3 4 4 7 1 7 -2 0 -8 -3 -11 -7z"/>
<path d="M636 1519 c2 -4 -2 -9 -10 -12 -10 -4 -15 -38 -7 -55 0 -1 12 5 26
14 14 9 22 20 19 25 -3 5 0 9 6 9 8 0 10 -10 6 -27 -5 -23 -4 -25 5 -10 13 22
4 51 -14 44 -6 -2 -11 -9 -10 -14 1 -5 -7 -15 -18 -21 -17 -11 -20 -10 -17 5
2 10 14 26 28 35 23 16 23 17 3 15 -12 0 -20 -4 -17 -8z"/>
<path d="M844 1515 c-4 -8 -10 -12 -15 -9 -12 7 -23 -22 -15 -42 5 -13 9 -13
30 3 13 10 22 20 20 22 -2 2 -13 -4 -24 -14 -19 -18 -20 -17 -20 4 0 12 4 20
8 17 5 -3 16 4 25 15 9 10 12 19 7 19 -6 0 -13 -7 -16 -15z"/>
<path d="M454 1496 c5 -16 2 -17 -21 -12 -27 5 -27 5 -5 -6 29 -15 54 4 33 25
-12 10 -13 9 -7 -7z"/>
<path d="M271 1490 c0 -8 4 -22 9 -30 12 -18 12 -2 0 25 -6 13 -9 15 -9 5z"/>
<path d="M180 1485 c0 -8 29 -12 39 -5 9 5 4 8 -13 8 -14 0 -26 -2 -26 -3z"/>
<path d="M360 1475 c-7 -9 -11 -17 -9 -20 3 -2 10 5 17 15 14 24 10 26 -8 5z"/>
<path d="M535 1480 c3 -5 8 -10 11 -10 2 0 4 5 4 10 0 6 -5 10 -11 10 -5 0 -7
-4 -4 -10z"/>
<path d="M853 1455 c-23 -20 -25 -26 -13 -34 19 -13 33 -3 27 21 -4 14 -2 18
9 14 8 -3 13 -2 9 3 -3 5 1 12 7 14 9 4 10 6 1 6 -7 1 -25 -10 -40 -24z m7
-21 c0 -8 -5 -12 -10 -9 -6 4 -8 11 -5 16 9 14 15 11 15 -7z"/>
<path d="M216 1461 c-3 -5 2 -15 12 -22 15 -13 16 -12 4 3 -12 15 -11 17 7 15
14 -1 19 -8 18 -21 -2 -15 4 -20 23 -21 15 0 24 5 23 13 -2 6 6 12 18 12 11 0
18 -4 14 -9 -6 -11 33 -36 43 -27 3 3 0 6 -7 6 -7 0 -9 4 -6 10 3 6 -1 7 -10
4 -10 -4 -15 -2 -13 7 2 9 -6 14 -22 14 -14 0 -24 -5 -23 -12 2 -6 -6 -11 -17
-10 -12 1 -18 8 -17 20 2 20 -37 35 -47 18z"/>
<path d="M374 1458 c-3 -5 -1 -15 6 -22 6 -8 13 -24 15 -36 2 -13 7 -25 10
-29 4 -3 4 7 1 23 -3 16 -10 34 -16 40 -15 15 -12 22 8 23 13 1 18 -5 18 -19
-1 -20 27 -33 45 -22 11 6 0 34 -13 34 -6 0 -6 -6 2 -14 9 -12 8 -15 -10 -13
-14 1 -20 7 -18 22 2 15 -3 20 -20 21 -12 1 -25 -3 -28 -8z"/>
<path d="M470 1460 c0 -5 5 -10 10 -10 6 0 10 5 10 10 0 6 -4 10 -10 10 -5 0
-10 -4 -10 -10z"/>
<path d="M695 1460 c-3 -5 -3 -14 0 -22 4 -9 -2 -14 -15 -15 -11 -1 -19 4 -17
10 1 7 -4 12 -12 12 -8 0 -15 -6 -17 -13 -1 -7 0 -8 3 -2 2 5 9 10 14 10 6 0
8 -4 4 -9 -3 -6 3 -15 14 -20 22 -12 45 7 36 31 -3 8 1 14 13 15 13 1 18 -5
18 -19 -1 -20 27 -33 45 -22 11 6 0 34 -13 34 -6 0 -6 -6 2 -14 9 -12 8 -15
-10 -13 -14 1 -20 7 -18 22 2 15 -3 20 -20 21 -12 1 -25 -2 -27 -6z"/>
<path d="M791 1465 c1 -19 18 -51 18 -35 0 8 -4 22 -9 30 -5 8 -9 11 -9 5z"/>
<path d="M190 1430 c6 -11 15 -18 21 -15 5 4 9 -3 9 -14 0 -11 4 -22 9 -25 6
-4 6 5 2 21 -5 16 -13 27 -20 26 -6 -2 -11 4 -11 12 0 8 -5 15 -10 15 -7 0 -7
-7 0 -20z"/>
<path d="M596 1435 c4 -8 8 -15 10 -15 2 0 4 7 4 15 0 8 -4 15 -10 15 -5 0 -7
-7 -4 -15z"/>
<path d="M895 1439 c-8 -12 0 -22 20 -25 8 -1 13 2 9 7 -3 5 -10 6 -16 3 -7
-5 -9 -1 -5 9 7 19 2 23 -8 6z"/>
<path d="M576 1427 c3 -10 9 -15 12 -12 3 3 0 11 -7 18 -10 9 -11 8 -5 -6z"/>
<path d="M180 1406 c0 -2 8 -10 18 -17 15 -13 16 -12 3 4 -13 16 -21 21 -21
13z"/>
<path d="M310 1400 c0 -5 5 -10 10 -10 6 0 10 5 10 10 0 6 -4 10 -10 10 -5 0
-10 -4 -10 -10z"/>
<path d="M470 1398 c0 -4 4 -8 9 -8 6 0 12 4 15 8 3 5 -1 9 -9 9 -8 0 -15 -4
-15 -9z"/>
<path d="M610 1400 c0 -5 5 -10 10 -10 6 0 10 5 10 10 0 6 -4 10 -10 10 -5 0
-10 -4 -10 -10z"/>
<path d="M710 1403 c0 -5 5 -15 10 -23 7 -12 9 -10 7 8 -1 19 -17 33 -17 15z"/>
<path d="M790 1400 c0 -6 6 -13 13 -16 7 -2 13 -13 14 -24 1 -16 -1 -18 -17
-8 -10 7 -17 15 -14 19 6 10 -36 33 -44 25 -3 -3 -1 -6 5 -6 8 0 8 -7 0 -23
-13 -29 -47 -31 -44 -3 2 15 -4 20 -23 21 -15 0 -24 -5 -22 -12 2 -15 -14 -17
-21 -3 -3 6 -4 5 -3 -2 2 -7 9 -13 17 -13 8 0 13 5 12 12 -2 6 6 11 17 10 12
-1 18 -8 17 -21 -3 -30 42 -29 54 1 5 12 13 23 19 23 6 0 9 -4 5 -9 -3 -6 5
-15 17 -22 20 -11 21 -13 5 -18 -10 -4 -18 -11 -17 -16 1 -6 -9 -13 -22 -17
-22 -7 -22 -7 2 -5 14 1 24 6 22 11 -2 5 7 14 20 20 28 14 32 49 7 70 -11 9
-19 11 -19 6z"/>
<path d="M820 1400 c8 -5 22 -9 30 -9 10 0 8 3 -5 9 -27 12 -43 12 -25 0z"/>
<path d="M268 1393 c6 -2 10 -9 7 -14 -4 -5 1 -6 10 -3 10 4 15 2 13 -7 -2 -9
6 -14 22 -14 14 0 24 5 23 12 -2 6 6 11 17 10 12 -1 18 -8 17 -21 -3 -26 40
-30 54 -4 6 12 6 18 -1 18 -5 0 -10 -6 -10 -13 0 -7 -9 -13 -20 -13 -13 0 -18
6 -17 20 2 15 -4 20 -23 21 -15 0 -24 -5 -22 -12 1 -7 -7 -13 -19 -13 -11 0
-18 4 -14 9 5 10 -25 32 -42 30 -4 0 -2 -3 5 -6z"/>
<path d="M440 1385 c14 -7 23 -17 20 -22 -3 -4 6 -9 20 -10 l25 -2 -25 8 c-14
5 -20 10 -15 10 13 2 -25 31 -39 31 -6 -1 0 -7 14 -15z"/>
<path d="M908 1393 c6 -2 10 -9 7 -14 -4 -5 1 -6 10 -2 13 5 14 7 3 14 -7 5
-17 8 -23 8 -5 0 -4 -3 3 -6z"/>
<path d="M870 1381 c0 -5 7 -11 14 -14 10 -4 13 -1 9 9 -6 15 -23 19 -23 5z"/>
<path d="M255 1365 c4 -16 0 -21 -15 -21 -11 0 -20 6 -20 13 0 7 -5 13 -10 13
-7 0 -7 -6 -1 -18 9 -18 43 -23 57 -10 3 4 1 15 -6 25 -10 17 -11 17 -5 -2z"/>
<path d="M850 1360 c8 -5 20 -10 25 -10 6 0 3 5 -5 10 -8 5 -19 10 -25 10 -5
0 -3 -5 5 -10z"/>
<path d="M920 1360 c-9 -6 -10 -10 -3 -10 6 0 15 5 18 10 8 12 4 12 -15 0z"/>
<path d="M192 1337 c10 -23 9 -30 -3 -38 -12 -9 -12 -10 1 -6 21 5 23 29 5 52
-14 19 -15 18 -3 -8z"/>
<path d="M273 1330 c-10 -14 -9 -21 2 -30 15 -12 39 -4 30 10 -3 5 3 10 12 13
14 3 13 4 -2 3 -11 -1 -19 -7 -17 -14 2 -13 -10 -16 -21 -5 -4 3 -2 12 5 20 6
7 9 15 7 18 -3 2 -10 -4 -16 -15z"/>
<path d="M351 1345 c1 -19 18 -51 18 -35 0 8 -4 22 -9 30 -5 8 -9 11 -9 5z"/>
<path d="M432 1330 c-7 -11 -18 -17 -27 -14 -8 4 -15 1 -15 -5 0 -6 3 -10 8
-9 4 0 15 -2 25 -6 18 -9 54 0 44 11 -4 3 1 12 11 20 15 13 15 13 -6 3 -12 -6
-20 -15 -17 -21 4 -5 -4 -9 -16 -9 -21 0 -22 1 -4 20 10 11 16 22 14 25 -3 2
-10 -5 -17 -15z"/>
<path d="M632 1334 c10 -10 20 -16 22 -13 3 3 -5 11 -17 18 -21 13 -21 12 -5
-5z"/>
<path d="M671 1345 c1 -19 18 -51 18 -35 0 8 -4 22 -9 30 -5 8 -9 11 -9 5z"/>
<path d="M751 1327 c-13 -21 -12 -21 5 -5 10 10 16 20 13 22 -3 3 -11 -5 -18
-17z"/>
<path d="M827 1324 c-16 -21 -16 -25 -3 -30 21 -8 49 3 41 16 -3 5 -2 10 4 10
5 0 12 -5 14 -10 3 -6 4 -5 3 2 -2 7 -9 13 -17 13 -8 0 -13 -6 -11 -12 1 -7
-8 -13 -20 -13 -20 0 -21 1 -3 20 10 11 16 22 14 24 -2 2 -12 -7 -22 -20z"/>
<path d="M890 1341 c0 -6 4 -11 9 -11 5 0 12 -8 14 -17 4 -15 5 -15 6 -2 0 9
-6 22 -14 29 -10 9 -15 9 -15 1z"/>
<path d="M936 1341 c-14 -22 20 -70 49 -71 6 0 -1 8 -15 18 -14 9 -27 26 -28
36 -3 17 -1 18 11 7 10 -8 17 -9 22 -1 3 5 5 10 3 11 -24 6 -39 6 -42 0z"/>
<path d="M230 1310 c0 -5 5 -10 10 -10 6 0 10 5 10 10 0 6 -4 10 -10 10 -5 0
-10 -4 -10 -10z"/>
<path d="M710 1310 c0 -5 5 -10 10 -10 6 0 10 5 10 10 0 6 -4 10 -10 10 -5 0
-10 -4 -10 -10z"/>
<path d="M975 1311 c-6 -11 13 -26 22 -17 4 3 1 6 -6 6 -7 0 -9 5 -6 10 3 6 4
10 1 10 -3 0 -7 -4 -11 -9z"/>
<path d="M320 1295 c-7 -8 -9 -15 -4 -15 5 0 3 -4 -5 -9 -15 -10 -23 -39 -15
-53 3 -4 16 -1 29 8 14 9 22 20 19 25 -3 5 0 9 6 9 8 0 10 -10 6 -27 -5 -23
-4 -25 5 -10 13 22 4 51 -14 44 -6 -2 -11 -9 -10 -14 1 -5 -7 -15 -18 -21 -17
-11 -20 -10 -17 5 2 10 10 23 18 30 8 7 11 13 6 13 -6 0 -1 7 10 15 10 8 14
15 8 15 -6 0 -17 -7 -24 -15z"/>
<path d="M666 1285 c9 -14 20 -25 25 -25 4 0 6 -9 4 -20 -2 -12 0 -18 6 -14 5
3 16 0 24 -6 17 -14 17 -14 20 18 1 13 -4 26 -11 29 -8 3 -12 8 -10 12 3 4 -5
8 -17 8 -20 2 -20 1 3 -15 14 -9 26 -25 28 -35 3 -15 0 -16 -17 -5 -11 6 -17
16 -15 20 3 5 -2 11 -10 14 -8 3 -18 14 -21 25 -4 10 -11 19 -16 19 -5 0 -2
-11 7 -25z"/>
<path d="M475 1289 c-11 -16 -1 -19 13 -3 7 8 8 14 3 14 -5 0 -13 -5 -16 -11z"/>
<path d="M230 1272 c14 -9 26 -25 28 -35 3 -15 0 -16 -17 -5 -11 6 -19 16 -18
21 1 5 -4 12 -10 14 -18 7 -27 -22 -14 -44 9 -15 10 -13 5 10 -4 17 -2 27 6
27 6 0 9 -4 6 -9 -3 -5 5 -16 19 -25 23 -15 25 -15 35 3 8 16 5 23 -19 40 -16
12 -33 21 -38 21 -4 0 3 -8 17 -18z"/>
<path d="M260 1280 c8 -5 20 -10 25 -10 6 0 3 5 -5 10 -8 5 -19 10 -25 10 -5
0 -3 -5 5 -10z"/>
<path d="M370 1280 c0 -5 5 -10 10 -10 6 0 10 5 10 10 0 6 -4 10 -10 10 -5 0
-10 -4 -10 -10z"/>
<path d="M407 1279 c7 -7 15 -10 18 -7 3 3 -2 9 -12 12 -14 6 -15 5 -6 -5z"/>
<path d="M875 1281 c3 -2 -4 -11 -15 -18 -16 -11 -18 -18 -10 -34 10 -18 12
-18 35 -3 14 9 22 20 19 25 -3 5 0 9 6 9 8 0 10 -10 6 -27 -5 -23 -4 -25 5
-10 13 22 4 51 -14 44 -6 -2 -11 -9 -10 -14 1 -5 -7 -15 -18 -21 -17 -11 -20
-10 -17 5 2 10 14 26 28 35 23 16 23 17 2 15 -11 0 -19 -3 -17 -6z"/>
<path d="M927 1279 c7 -7 15 -10 18 -7 3 3 -2 9 -12 12 -14 6 -15 5 -6 -5z"/>
<path d="M432 1258 c-7 -9 -6 -18 4 -32 8 -11 14 -15 14 -9 0 7 -5 15 -10 18
-6 4 -8 11 -5 16 9 13 25 11 23 -3 -2 -7 3 -13 11 -13 8 0 15 6 17 13 1 7 0 8
-3 2 -6 -14 -24 -13 -20 1 3 17 -18 22 -31 7z"/>
<path d="M773 1259 c-18 -18 1 -46 29 -44 17 1 23 8 23 26 0 27 -32 38 -52 18z
m44 -18 c1 -12 -5 -18 -15 -17 -34 2 -37 36 -4 36 10 0 18 -8 19 -19z"/>
<path d="M390 1250 c0 -5 5 -10 10 -10 6 0 10 5 10 10 0 6 -4 10 -10 10 -5 0
-10 -4 -10 -10z"/>
<path d="M950 1250 c0 -5 5 -10 10 -10 6 0 10 5 10 10 0 6 -4 10 -10 10 -5 0
-10 -4 -10 -10z"/>
<path d="M990 1245 c0 -8 4 -15 10 -15 5 0 7 7 4 15 -4 8 -8 15 -10 15 -2 0
-4 -7 -4 -15z"/>
<path d="M375 1219 c-3 -4 -3 -13 0 -21 4 -9 -2 -14 -15 -15 -11 -1 -19 4 -17
10 1 7 -4 12 -12 12 -8 0 -15 -6 -17 -13 -1 -7 0 -8 3 -2 2 5 9 10 14 10 6 0
8 -4 4 -9 -3 -6 3 -15 14 -20 22 -12 45 7 36 31 -4 9 1 14 15 14 15 0 19 -5
15 -21 -6 -19 -5 -19 5 -2 7 10 9 21 6 25 -9 9 -46 10 -51 1z"/>
<path d="M935 1220 c-5 -9 0 -38 8 -46 4 -4 15 0 26 10 17 15 19 15 25 1 3 -9
10 -13 16 -10 5 3 10 -3 10 -15 0 -12 -4 -18 -10 -15 -5 3 -15 -5 -21 -19 -8
-16 -18 -23 -30 -21 -19 4 -47 -31 -35 -43 3 -3 6 0 6 7 0 7 4 9 10 6 5 -3 7
0 4 9 -4 11 0 14 16 11 12 -2 23 2 27 10 3 8 9 12 14 9 5 -3 6 2 3 11 -4 10
-2 15 7 13 9 -2 14 6 14 20 0 12 -4 21 -8 20 -5 -2 -14 8 -22 21 -12 23 -51
36 -60 21z m45 -10 c0 -8 -22 -30 -30 -30 -3 0 -6 8 -7 18 -1 11 5 18 18 18
10 0 19 -3 19 -6z"/>
<path d="M1014 1219 c-3 -6 -3 -13 0 -16 3 -4 6 -1 6 5 0 6 7 9 15 6 8 -4 15
-4 15 -1 0 11 -30 16 -36 6z"/>
<path d="M180 1215 c0 -5 5 -17 10 -25 5 -8 10 -10 10 -5 0 6 -5 17 -10 25 -5
8 -10 11 -10 5z"/>
<path d="M225 1200 c3 -5 1 -10 -4 -10 -6 0 -11 -5 -11 -10 0 -6 8 -5 19 2 19
12 19 28 0 28 -6 0 -7 -4 -4 -10z"/>
<path d="M276 1195 c4 -8 8 -15 10 -15 2 0 4 7 4 15 0 8 -4 15 -10 15 -5 0 -7
-7 -4 -15z"/>
<path d="M459 1203 c-1 -4 -1 -12 0 -17 1 -5 -5 -6 -14 -2 -9 3 -13 2 -10 -4
3 -6 1 -10 -6 -10 -7 0 -10 -3 -7 -6 10 -9 49 16 43 27 -4 5 -2 9 4 9 5 0 12
-5 14 -10 3 -6 4 -5 3 2 -3 14 -25 24 -27 11z"/>
<path d="M756 1195 c4 -8 8 -15 10 -15 2 0 4 7 4 15 0 8 -4 15 -10 15 -5 0 -7
-7 -4 -15z"/>
<path d="M830 1195 c0 -8 2 -15 4 -15 2 0 6 7 10 15 3 8 1 15 -4 15 -6 0 -10
-7 -10 -15z"/>
<path d="M876 1202 c-2 -4 0 -14 6 -22 8 -12 9 -11 4 3 -5 15 -2 17 17 12 17
-5 19 -4 7 4 -18 13 -27 14 -34 3z"/>
<path d="M790 1190 c0 -5 5 -10 10 -10 6 0 10 5 10 10 0 6 -4 10 -10 10 -5 0
-10 -4 -10 -10z"/>
<path d="M254 1179 c-12 -20 13 -33 38 -21 22 11 22 11 -5 6 -22 -5 -26 -3
-21 10 7 18 -1 22 -12 5z"/>
<path d="M735 1181 c-9 -15 29 -31 46 -20 12 8 12 10 -1 8 -29 -3 -41 1 -35
11 3 6 4 10 1 10 -3 0 -7 -4 -11 -9z"/>
<path d="M854 1176 c5 -16 2 -17 -21 -12 -27 5 -27 5 -5 -6 29 -15 54 4 33 25
-12 10 -13 9 -7 -7z"/>
<path d="M900 1165 c-14 -16 -4 -39 12 -29 7 5 9 1 5 -9 -3 -10 -2 -17 4 -17
6 0 9 8 7 18 -2 9 -10 16 -16 15 -13 -3 -16 9 -5 20 3 4 12 2 20 -5 7 -6 15
-9 18 -7 2 3 -4 10 -15 16 -14 10 -21 9 -30 -2z"/>
<path d="M188 1158 c5 -5 16 -8 23 -6 8 3 3 7 -10 11 -17 4 -21 3 -13 -5z"/>
<path d="M310 1152 c-32 -35 -20 -69 15 -46 14 9 23 20 20 24 -3 5 3 8 14 7
14 -1 19 -8 18 -21 -2 -15 4 -20 23 -21 19 0 24 4 22 20 -2 15 3 21 18 22 18
2 19 -1 10 -13 -8 -8 -8 -14 -2 -14 13 0 24 28 13 34 -18 11 -46 -2 -45 -22 0
-14 -5 -20 -17 -19 -12 1 -17 8 -16 21 2 15 -4 20 -23 21 -14 0 -24 -5 -23
-11 1 -5 -7 -16 -18 -22 -17 -11 -20 -10 -17 5 2 10 10 23 18 30 8 6 13 14 10
16 -3 3 -12 -2 -20 -11z"/>
<path d="M390 1160 c0 -5 5 -10 10 -10 6 0 10 5 10 10 0 6 -4 10 -10 10 -5 0
-10 -4 -10 -10z"/>
<path d="M970 1160 c0 -5 5 -10 10 -10 6 0 10 5 10 10 0 6 -4 10 -10 10 -5 0
-10 -4 -10 -10z"/>
<path d="M230 1140 c0 -5 5 -10 10 -10 6 0 10 5 10 10 0 6 -4 10 -10 10 -5 0
-10 -4 -10 -10z"/>
<path d="M775 1141 c-3 -5 8 -19 25 -31 16 -12 30 -17 30 -11 0 6 -5 11 -11
11 -8 0 -9 4 0 13 6 8 8 17 4 20 -9 10 -41 8 -48 -2z m37 -13 c-9 -9 -15 -9
-24 0 -9 9 -7 12 12 12 19 0 21 -3 12 -12z"/>
<path d="M874 1125 c1 -17 7 -29 14 -28 6 2 10 -6 9 -17 -1 -13 -8 -18 -21
-17 -15 1 -20 -4 -20 -22 0 -14 6 -26 14 -29 9 -2 11 0 5 5 -19 16 -14 42 8
40 16 -2 21 4 22 23 0 16 -5 24 -14 22 -8 -2 -11 3 -8 11 3 8 1 20 -4 28 -5 9
-7 4 -5 -16z"/>
<path d="M480 1135 c0 -5 5 -17 10 -25 5 -8 10 -10 10 -5 0 6 -5 17 -10 25 -5
8 -10 11 -10 5z"/>
<path d="M950 1130 c0 -5 5 -10 10 -10 6 0 10 5 10 10 0 6 -4 10 -10 10 -5 0
-10 -4 -10 -10z"/>
<path d="M210 1115 c15 -18 -1 -20 -19 -2 -10 10 -11 9 -6 -5 7 -18 26 -24 38
-12 8 8 -3 34 -15 34 -6 0 -5 -6 2 -15z"/>
<path d="M250 1120 c-8 -5 -10 -10 -5 -10 6 0 17 5 25 10 8 5 11 10 5 10 -5 0
-17 -5 -25 -10z"/>
<path d="M840 1115 c0 -8 2 -15 4 -15 2 0 6 7 10 15 3 8 1 15 -4 15 -6 0 -10
-7 -10 -15z"/>
<path d="M1023 1111 c-15 -23 -11 -54 8 -59 8 -2 10 0 4 5 -5 4 -11 17 -13 28
-3 20 -2 20 13 1 8 -11 15 -15 15 -9 0 7 -5 15 -10 18 -8 5 -7 11 1 21 6 8 7
14 3 14 -5 0 -14 -8 -21 -19z"/>
<path d="M270 1103 c0 -6 8 -17 18 -24 16 -13 16 -13 2 6 -8 11 -16 22 -17 24
-2 2 -3 0 -3 -6z"/>
<path d="M356 1087 c5 -23 4 -26 -12 -21 -16 6 -17 5 -6 -7 20 -21 39 4 24 33
-11 22 -11 22 -6 -5z"/>
<path d="M467 1103 c-4 -3 -7 -15 -7 -25 0 -11 -4 -17 -9 -14 -5 3 -16 -5 -25
-19 -15 -23 -15 -25 5 -35 11 -7 23 -9 27 -6 3 3 0 6 -7 6 -7 0 -9 4 -6 10 4
6 -1 7 -10 3 -15 -5 -15 -3 -4 15 7 11 17 20 22 19 6 -1 13 10 18 26 8 28 7
32 -4 20z"/>
<path d="M776 1097 c3 -10 9 -15 12 -12 3 3 0 11 -7 18 -10 9 -11 8 -5 -6z"/>
<path d="M426 1085 c-11 -8 -15 -15 -9 -15 6 0 16 7 23 15 16 19 11 19 -14 0z"/>
<path d="M230 1081 c0 -6 7 -7 17 -4 11 4 14 3 9 -5 -4 -8 3 -16 21 -23 35
-14 80 -22 71 -14 -3 4 -12 8 -20 9 -43 9 -67 19 -65 29 1 6 -6 13 -15 15 -10
2 -18 -1 -18 -7z"/>
<path d="M315 1079 c-11 -16 -1 -19 13 -3 7 8 8 14 3 14 -5 0 -13 -5 -16 -11z"/>
<path d="M486 1077 c3 -10 9 -15 12 -12 3 3 0 11 -7 18 -10 9 -11 8 -5 -6z"/>
<path d="M835 1080 c-13 -6 -15 -9 -5 -9 8 0 22 4 30 9 18 12 2 12 -25 0z"/>
<path d="M991 1074 c0 -11 3 -14 6 -6 3 7 2 16 -1 19 -3 4 -6 -2 -5 -13z"/>
<path d="M187 1064 c2 -7 12 -10 21 -7 14 5 15 3 5 -8 -7 -7 -13 -17 -13 -23
0 -5 6 -1 14 9 16 23 14 31 -13 38 -13 3 -18 1 -14 -9z"/>
<path d="M390 1075 c0 -5 5 -17 10 -25 5 -8 10 -10 10 -5 0 6 -5 17 -10 25 -5
8 -10 11 -10 5z"/>
<path d="M952 1064 c-7 -8 -8 -14 -3 -14 10 0 25 19 20 25 -2 1 -10 -3 -17
-11z"/>
<path d="M795 1060 c3 -5 8 -10 11 -10 2 0 4 5 4 10 0 6 -5 10 -11 10 -5 0 -7
-4 -4 -10z"/>
<path d="M237 1043 c-4 -3 -7 -11 -7 -17 0 -6 5 -5 12 2 6 6 9 14 7 17 -3 3
-9 2 -12 -2z"/>
<path d="M365 1040 c-3 -6 1 -7 9 -4 18 7 21 14 7 14 -6 0 -13 -4 -16 -10z"/>
<path d="M467 1044 c-3 -4 -2 -14 3 -24 5 -10 6 -21 2 -25 -4 -5 -1 -5 6 -1 7
4 12 2 12 -5 0 -7 3 -10 6 -7 3 4 -2 18 -11 32 -10 14 -13 26 -7 26 6 0 13 -5
15 -10 3 -6 4 -5 3 2 -3 14 -20 21 -29 12z"/>
<path d="M820 1040 c0 -5 5 -10 10 -10 6 0 10 5 10 10 0 6 -4 10 -10 10 -5 0
-10 -4 -10 -10z"/>
<path d="M970 1040 c0 -5 5 -10 10 -10 6 0 10 5 10 10 0 6 -4 10 -10 10 -5 0
-10 -4 -10 -10z"/>
<path d="M1031 1031 c-8 -5 -16 -18 -17 -28 -3 -19 22 -53 39 -53 6 0 3 6 -8
13 -12 10 -14 16 -7 21 7 4 12 12 12 19 0 6 -7 2 -15 -9 -15 -19 -16 -19 -13
1 4 27 19 36 38 22 13 -11 13 -10 1 6 -7 9 -14 17 -15 17 0 0 -7 -4 -15 -9z"/>
<path d="M259 1023 c-1 -5 -1 -12 0 -17 1 -4 -11 -6 -26 -2 -23 5 -25 4 -10
-5 21 -12 51 -4 42 11 -3 6 4 10 16 10 21 0 21 -1 6 -18 -10 -10 -17 -23 -17
-28 0 -4 7 1 15 13 9 13 22 20 30 17 8 -4 15 -1 15 6 0 6 -4 9 -9 5 -5 -3 -12
-1 -16 5 -7 12 -44 14 -46 3z"/>
<path d="M375 1020 c-3 -5 -2 -10 4 -10 5 0 13 5 16 10 3 6 2 10 -4 10 -5 0
-13 -4 -16 -10z"/>
<path d="M895 1021 c-3 -6 -3 -11 2 -11 4 -1 -3 -7 -17 -15 -14 -8 -20 -14
-13 -15 7 0 17 -10 24 -22 10 -19 9 -20 -7 -14 -15 5 -16 4 -7 -5 20 -20 36 0
19 26 -14 21 -14 24 0 29 8 3 12 10 9 16 -3 5 3 10 14 10 12 0 20 -6 19 -12
-2 -7 3 -13 11 -13 8 0 15 6 17 13 1 7 0 8 -3 2 -7 -14 -24 -13 -20 2 3 16
-39 23 -48 9z"/>
<path d="M351 1010 c0 -8 4 -22 9 -30 12 -18 12 -2 0 25 -6 13 -9 15 -9 5z"/>
<path d="M836 1007 c3 -10 9 -15 12 -12 3 3 0 11 -7 18 -10 9 -11 8 -5 -6z"/>
<path d="M991 1004 c0 -11 3 -14 6 -6 3 7 2 16 -1 19 -3 4 -6 -2 -5 -13z"/>
<path d="M390 1000 c-13 -8 -12 -10 3 -10 9 0 17 5 17 10 0 12 -1 12 -20 0z"/>
<path d="M205 980 c3 -5 11 -10 16 -10 6 0 7 5 4 10 -3 6 -11 10 -16 10 -6 0
-7 -4 -4 -10z"/>
<path d="M295 979 c-3 -4 -3 -13 0 -21 4 -9 -2 -14 -15 -15 -11 -1 -18 2 -15
7 9 15 -14 22 -32 10 -16 -9 -15 -10 5 -5 16 5 22 3 20 -7 -2 -8 6 -13 22 -13
19 1 25 6 23 21 -1 14 4 20 17 20 11 0 20 -6 20 -13 0 -7 5 -13 10 -13 7 0 8
6 2 17 -10 17 -49 26 -57 12z"/>
<path d="M419 982 c-1 -4 -1 -14 0 -22 1 -9 -7 -16 -19 -17 -18 -2 -19 1 -10
13 8 8 8 14 2 14 -13 0 -24 -28 -13 -34 18 -11 46 2 45 22 0 14 5 20 18 19 10
-1 18 -7 18 -14 0 -16 16 -17 26 -1 4 6 3 8 -4 4 -5 -3 -12 -1 -14 6 -5 13
-47 22 -49 10z"/>
<path d="M910 980 c0 -5 5 -10 10 -10 6 0 10 5 10 10 0 6 -4 10 -10 10 -5 0
-10 -4 -10 -10z"/>
<path d="M945 969 c-16 -11 -25 -19 -20 -19 6 0 21 7 33 16 21 14 22 14 19 -7
-1 -15 4 -23 20 -25 29 -5 37 10 15 27 -15 13 -16 12 -4 -3 12 -15 11 -17 -7
-15 -15 1 -19 6 -16 18 9 26 -6 29 -40 8z"/>
<path d="M198 943 c11 -16 20 -32 20 -38 0 -5 6 -11 14 -13 11 -3 11 -2 0 6
-8 5 -14 13 -14 18 -1 18 -21 54 -30 54 -5 0 -1 -12 10 -27z"/>
<path d="M316 933 c-6 -14 -5 -15 5 -6 7 7 10 15 7 18 -3 3 -9 -2 -12 -12z"/>
<path d="M433 930 c-10 -14 -9 -21 2 -30 15 -12 39 -5 30 10 -3 5 2 11 10 13
11 3 10 4 -2 3 -10 -1 -17 -8 -15 -14 2 -13 -10 -16 -21 -5 -4 3 -2 12 5 20 6
7 9 15 7 18 -3 2 -10 -4 -16 -15z"/>
<path d="M950 941 c0 -6 4 -13 10 -16 6 -3 7 1 4 9 -7 18 -14 21 -14 7z"/>
<path d="M180 935 c0 -5 5 -17 10 -25 5 -8 10 -10 10 -5 0 6 -5 17 -10 25 -5
8 -10 11 -10 5z"/>
<path d="M236 927 c3 -10 9 -15 12 -12 3 3 0 11 -7 18 -10 9 -11 8 -5 -6z"/>
<path d="M906 924 c-11 -8 -15 -14 -9 -14 7 0 15 5 18 10 4 6 11 8 16 5 13 -9
11 -25 -3 -22 -7 1 -13 -4 -13 -12 0 -8 6 -15 13 -17 7 -1 8 0 2 3 -5 2 -10 9
-10 14 0 6 4 8 9 4 16 -9 24 16 10 30 -12 12 -17 11 -33 -1z"/>
<path d="M1035 929 c-4 -6 -5 -12 -2 -15 2 -3 7 2 10 11 7 17 1 20 -8 4z"/>
<path d="M335 920 c-7 -12 3 -32 14 -26 4 3 13 -4 19 -15 11 -17 10 -20 -5
-17 -10 2 -26 14 -35 28 -16 23 -17 23 -15 2 0 -11 3 -19 6 -17 2 3 11 -4 18
-15 11 -16 18 -18 34 -10 18 10 18 12 3 35 -9 14 -20 22 -25 19 -5 -3 -9 0 -9
6 0 8 10 10 28 6 20 -5 23 -4 12 4 -19 13 -37 13 -45 0z"/>
<path d="M1055 920 c-3 -5 -3 -10 2 -10 4 0 1 -5 -7 -11 -12 -8 -12 -10 -1 -7
8 2 15 12 17 21 3 19 -2 22 -11 7z"/>
<path d="M264 905 c-10 -8 -14 -14 -9 -14 6 0 19 6 29 14 11 8 15 15 10 15 -6
0 -19 -7 -30 -15z"/>
<path d="M396 903 c-9 -22 5 -35 24 -22 12 9 12 10 -3 5 -15 -5 -17 -2 -12 14
8 24 0 27 -9 3z"/>
<path d="M988 913 c6 -2 10 -9 7 -14 -4 -5 1 -6 10 -2 15 5 15 3 4 -15 -7 -11
-17 -18 -22 -15 -4 3 -11 -4 -14 -16 -3 -12 -9 -21 -14 -21 -5 0 -9 -4 -9 -10
0 -21 20 -9 26 15 3 14 10 23 14 20 4 -3 15 6 24 20 15 23 15 25 -3 35 -11 5
-23 10 -28 9 -4 0 -2 -3 5 -6z"/>
<path d="M966 896 c4 -12 4 -17 -2 -13 -6 3 -11 -4 -11 -15 -2 -20 -2 -20 14
1 12 17 13 25 4 34 -9 9 -10 7 -5 -7z"/>
<path d="M184 883 c4 -4 16 -8 28 -10 28 -4 18 6 -12 12 -12 2 -20 1 -16 -2z"/>
<path d="M275 880 c-8 -13 4 -32 16 -25 5 4 9 -4 9 -16 0 -21 -1 -22 -20 -4
-11 10 -22 16 -24 14 -2 -2 7 -12 20 -22 21 -16 25 -16 30 -3 8 21 -3 49 -16
41 -5 -3 -10 -2 -10 4 0 5 6 12 13 14 9 4 9 6 0 6 -6 1 -15 -3 -18 -9z"/>
<path d="M460 880 c-9 -6 -10 -10 -3 -10 6 0 15 5 18 10 8 12 4 12 -15 0z"/>
<path d="M236 865 c-9 -26 -7 -32 5 -12 6 10 9 21 6 23 -2 3 -7 -2 -11 -11z"/>
<path d="M1030 869 c0 -5 5 -7 10 -4 6 3 10 8 10 11 0 2 -4 4 -10 4 -5 0 -10
-5 -10 -11z"/>
<path d="M414 858 c-5 -8 -2 -9 10 -5 16 6 17 3 12 -20 -5 -23 -4 -25 5 -10
12 20 6 47 -10 47 -5 0 -13 -5 -17 -12z"/>
<path d="M475 860 c-3 -4 -2 -16 1 -25 4 -10 2 -15 -7 -13 -15 3 -25 -30 -12
-42 4 -4 17 -4 28 1 18 9 18 9 -2 5 -17 -3 -23 1 -23 15 0 10 6 18 13 17 7 -2
11 6 10 19 -2 16 2 21 12 17 8 -4 15 -4 15 -1 0 10 -29 16 -35 7z"/>
<path d="M201 847 c-1 -10 -5 -15 -11 -12 -6 4 -7 -1 -3 -11 6 -15 7 -15 15 0
5 9 7 22 4 29 -2 7 -5 4 -5 -6z"/>
<path d="M390 840 c0 -6 7 -10 15 -10 8 0 15 2 15 4 0 2 -7 6 -15 10 -8 3 -15
1 -15 -4z"/>
<path d="M999 833 c-13 -17 -13 -17 6 -3 11 8 22 16 24 17 2 2 0 3 -6 3 -6 0
-17 -8 -24 -17z"/>
<path d="M1027 827 c-14 -11 -14 -14 -2 -31 8 -11 15 -15 15 -10 0 6 -6 16
-12 23 -11 11 -10 13 4 8 10 -3 20 -2 23 3 9 15 -11 20 -28 7z"/>
<path d="M213 813 c-8 -20 2 -36 24 -39 29 -5 50 21 34 40 -15 17 -51 17 -58
-1z m52 -13 c0 -9 -10 -15 -22 -16 -16 -1 -23 4 -23 16 0 12 7 17 23 16 12 -1
22 -7 22 -16z"/>
<path d="M332 808 c-4 -15 -7 -17 -13 -6 -5 7 -9 9 -9 3 0 -5 4 -17 9 -24 8
-12 11 -10 16 10 7 30 41 37 41 8 0 -12 -5 -18 -14 -14 -7 2 -10 0 -7 -5 3 -6
1 -10 -6 -10 -7 0 -10 -3 -7 -6 13 -12 45 16 43 38 -2 30 -45 35 -53 6z"/>
<path d="M400 800 c0 -5 5 -10 10 -10 6 0 10 5 10 10 0 6 -4 10 -10 10 -5 0
-10 -4 -10 -10z"/>
<path d="M990 803 c5 -2 10 -9 10 -14 0 -6 -4 -8 -9 -4 -5 3 -12 1 -15 -4 -4
-5 2 -8 11 -7 21 3 24 28 5 32 -7 1 -8 0 -2 -3z"/>
<path d="M188 785 c5 -11 12 -27 15 -35 5 -13 6 -13 6 1 1 8 -6 24 -15 35 -15
19 -15 19 -6 -1z"/>
<path d="M1055 789 c-4 -6 -5 -12 -2 -15 2 -3 7 2 10 11 7 17 1 20 -8 4z"/>
<path d="M271 769 c-13 -10 -20 -19 -15 -19 4 0 16 7 26 17 17 15 18 15 18 -5
0 -12 -6 -21 -12 -19 -7 1 -13 -4 -13 -12 0 -8 6 -15 13 -17 7 -1 8 0 2 3 -14
7 -13 24 2 21 14 -4 23 31 11 42 -4 5 -19 0 -32 -11z"/>
<path d="M430 783 c0 -6 8 -17 18 -24 16 -13 16 -13 2 6 -8 11 -16 22 -17 24
-2 2 -3 0 -3 -6z"/>
<path d="M390 761 c0 -6 7 -7 17 -4 11 4 14 3 9 -5 -4 -7 0 -14 11 -18 10 -3
25 -9 34 -14 9 -5 22 -4 30 2 11 8 11 9 -3 4 -10 -3 -20 -1 -23 4 -4 6 -15 10
-26 10 -10 0 -18 5 -16 12 1 6 -6 14 -15 16 -10 2 -18 -1 -18 -7z"/>
<path d="M999 753 c-13 -17 -13 -17 6 -3 11 8 22 16 24 17 2 2 0 3 -6 3 -6 0
-17 -8 -24 -17z"/>
<path d="M230 755 c0 -5 5 -17 10 -25 5 -8 10 -10 10 -5 0 6 -5 17 -10 25 -5
8 -10 11 -10 5z"/>
<path d="M470 750 c0 -5 5 -10 11 -10 5 0 7 5 4 10 -3 6 -8 10 -11 10 -2 0 -4
-4 -4 -10z"/>
<path d="M1027 748 c-13 -10 -14 -17 -6 -28 9 -13 10 -12 5 3 -3 11 0 17 9 17
8 0 15 5 15 10 0 13 -3 13 -23 -2z"/>
<path d="M183 733 c1 -15 6 -20 20 -17 11 2 22 6 26 10 3 4 -2 4 -11 1 -11 -4
-21 0 -27 11 -9 15 -10 14 -8 -5z"/>
<path d="M335 742 c-9 -9 -5 -41 5 -47 7 -4 9 2 5 17 -5 19 -2 24 16 25 17 2
19 -1 10 -10 -6 -6 -11 -16 -11 -21 0 -6 6 -2 12 9 7 11 11 22 10 25 -2 7 -40
8 -47 2z"/>
<path d="M397 723 c-4 -3 -7 -11 -7 -17 0 -6 5 -5 12 2 6 6 9 14 7 17 -3 3 -9
2 -12 -2z"/>
<path d="M215 700 c-3 -5 -3 -10 0 -10 4 0 -3 -13 -15 -30 -12 -16 -17 -30
-12 -30 9 0 29 36 30 54 0 5 6 13 14 17 9 6 9 9 1 9 -6 0 -15 -4 -18 -10z"/>
<path d="M264 695 c11 -8 24 -15 30 -15 5 0 1 7 -10 15 -10 8 -23 14 -29 14
-5 0 -1 -6 9 -14z"/>
<path d="M314 686 c3 -16 8 -31 11 -35 3 -3 4 7 1 23 -3 16 -8 31 -11 35 -3 3
-4 -7 -1 -23z"/>
<path d="M409 694 c-8 -10 -9 -15 -2 -11 7 4 18 -2 27 -15 9 -12 16 -18 16
-14 0 5 -7 18 -17 28 -15 17 -15 18 6 18 13 0 20 -4 16 -11 -4 -6 2 -13 14
-16 12 -3 21 -10 21 -16 0 -6 2 -8 5 -5 11 10 -7 37 -21 31 -9 -3 -14 0 -12 8
4 20 -37 22 -53 3z"/>
<path d="M186 685 c-9 -26 -7 -32 5 -12 6 10 9 21 6 23 -2 3 -7 -2 -11 -11z"/>
<path d="M236 673 c-6 -14 -5 -15 5 -6 7 7 10 15 7 18 -3 3 -9 -2 -12 -12z"/>
<path d="M355 680 c-13 -6 -15 -9 -5 -9 8 0 22 4 30 9 18 12 2 12 -25 0z"/>
<path d="M1043 665 c0 -8 4 -12 9 -9 5 3 6 10 3 15 -9 13 -12 11 -12 -6z"/>
<path d="M259 662 c-1 -4 -1 -14 0 -22 1 -9 -7 -16 -19 -17 -18 -2 -19 1 -10
13 8 8 8 14 2 14 -13 0 -24 -28 -13 -34 18 -11 46 2 45 22 0 14 5 20 18 19 11
-1 16 -7 13 -15 -3 -8 -3 -18 0 -22 7 -11 35 -1 35 12 0 6 -6 5 -15 -2 -13
-11 -15 -9 -13 10 2 17 -3 23 -19 26 -13 2 -24 1 -24 -4z"/>
<path d="M376 661 c-3 -5 2 -15 12 -22 15 -13 16 -12 4 3 -12 15 -11 17 7 15
14 -1 20 -6 16 -15 -3 -8 -3 -18 0 -22 7 -11 35 -1 35 12 0 6 -6 5 -15 -2 -13
-11 -15 -9 -13 10 2 16 -3 23 -19 26 -12 2 -24 0 -27 -5z"/>
<path d="M350 630 c6 -11 15 -18 20 -15 4 3 11 0 13 -5 3 -6 4 -5 3 2 -2 7 -9
12 -15 11 -6 -2 -11 4 -11 12 0 8 -5 15 -10 15 -7 0 -7 -7 0 -20z"/>
<path d="M466 635 c4 -8 8 -15 10 -15 2 0 4 7 4 15 0 8 -4 15 -10 15 -5 0 -7
-7 -4 -15z"/>
<path d="M490 620 c0 -5 5 -10 11 -10 5 0 7 5 4 10 -3 6 -8 10 -11 10 -2 0 -4
-4 -4 -10z"/>
</g>
</svg>
