<?xml version="1.0" standalone="no"?>
<!DOCTYPE svg PUBLIC "-//W3C//DTD SVG 20010904//EN"
 "http://www.w3.org/TR/2001/REC-SVG-20010904/DTD/svg10.dtd">
<svg version="1.0" xmlns="http://www.w3.org/2000/svg"
 width="520.000000pt" height="520.000000pt" viewBox="0 0 520.000000 520.000000"
 preserveAspectRatio="xMidYMid meet">
<metadata>
Created by potrace 1.11, written by Peter Selinger 2001-2013
</metadata>
<g transform="translate(0.000000,520.000000) scale(0.100000,-0.100000)"
fill="#000000" stroke="none">
<path d="M738 4678 c-22 -22 -23 -61 -2 -82 8 -9 18 -17 22 -17 37 -7 2334 -3
2355 4 46 15 49 88 4 103 -12 5 -548 8 -1192 9 -1102 0 -1171 -1 -1187 -17z"/>
<path d="M3284 4687 c-25 -13 -34 -27 -34 -52 1 -45 57 -76 93 -50 22 16 31
66 15 86 -18 21 -51 29 -74 16z"/>
<path d="M894 4312 c-6 -4 -16 -17 -23 -29 -14 -27 3 -70 31 -79 10 -3 635 -6
1389 -6 1261 0 1372 2 1389 17 27 25 30 52 8 80 l-19 25 -1382 0 c-760 0
-1387 -4 -1393 -8z"/>
<path d="M3867 4302 c-35 -38 -12 -102 37 -102 30 0 54 20 61 52 13 53 -61 91
-98 50z"/>
<path d="M963 3942 c-43 -6 -63 -58 -34 -93 l19 -24 1703 0 c1634 0 1703 1
1726 18 13 10 23 29 23 42 0 24 -23 54 -43 56 -28 3 -3374 4 -3394 1z"/>
<path d="M787 3552 c-21 -23 -22 -66 -1 -86 14 -14 75 -16 527 -16 564 1 551
-1 549 61 -2 60 12 58 -548 59 -482 0 -512 -1 -527 -18z"/>
<path d="M3096 3555 c-26 -20 -28 -59 -5 -84 20 -21 25 -21 582 -21 619 1 601
-1 599 61 -2 60 16 58 -597 58 -469 0 -563 -2 -579 -14z"/>
<path d="M4373 3558 c-6 -7 -13 -25 -17 -40 -13 -54 60 -91 97 -50 22 24 21
65 -1 85 -22 20 -65 22 -79 5z"/>
<path d="M867 3180 c-24 -20 -25 -66 -3 -88 15 -15 62 -17 487 -17 454 0 471
1 485 19 22 30 18 73 -8 88 -17 9 -136 12 -482 13 -404 0 -462 -2 -479 -15z"/>
<path d="M3340 3188 c-38 -14 -37 -92 1 -107 11 -4 321 -7 689 -6 610 0 671 1
686 17 21 21 21 65 0 86 -15 15 -76 17 -687 17 -368 0 -679 -3 -689 -7z"/>
<path d="M4960 3187 c-46 -24 -42 -90 6 -108 27 -9 64 9 75 37 17 47 -36 93
-81 71z"/>
<path d="M870 2822 c-68 -8 -94 -54 -56 -99 l21 -25 475 2 c261 0 483 1 493 2
46 3 58 86 16 109 -17 8 -881 19 -949 11z"/>
<path d="M3747 2820 c-251 -5 -270 -6 -283 -24 -36 -51 0 -96 79 -96 196 -2
1325 1 1338 3 51 9 67 75 26 102 -19 12 -91 15 -457 17 -239 2 -556 1 -703 -2z"/>
<path d="M907 2435 c-31 -15 -39 -60 -17 -87 l18 -23 443 0 c271 -1 453 3 467
9 42 18 41 88 -1 103 -35 12 -886 10 -910 -2z"/>
<path d="M3355 2442 c-48 -10 -66 -62 -31 -96 21 -21 23 -21 614 -21 l594 0
18 23 c21 25 19 58 -5 81 -14 14 -84 16 -593 16 -317 0 -586 -1 -597 -3z"/>
<path d="M4828 2438 c-33 -12 -45 -51 -23 -84 8 -13 19 -24 23 -25 4 0 15 -2
25 -4 26 -5 57 30 57 64 0 43 -36 65 -82 49z"/>
<path d="M786 2054 c-21 -21 -20 -73 2 -90 14 -11 120 -13 534 -14 l517 0 21
22 c24 26 20 64 -7 86 -13 9 -136 12 -534 12 -457 0 -519 -2 -533 -16z"/>
<path d="M3057 2052 c-22 -24 -21 -65 1 -85 17 -16 81 -17 714 -17 660 0 696
1 711 18 22 24 21 65 -1 85 -17 16 -81 17 -714 17 -660 0 -696 -1 -711 -18z"/>
<path d="M950 1688 c-38 -14 -46 -66 -16 -97 14 -14 170 -15 1546 -16 1515 0
1529 0 1544 20 22 28 20 59 -5 81 -20 18 -61 19 -1536 19 -833 0 -1523 -3
-1533 -7z"/>
<path d="M4200 1672 c-26 -32 -25 -48 4 -77 37 -37 96 -16 96 34 0 62 -64 89
-100 43z"/>
<path d="M815 1322 c-62 -3 -89 -18 -98 -54 -4 -13 3 -28 18 -44 l24 -24 1471
0 c1443 0 1470 0 1489 19 23 23 20 69 -6 89 -9 6 -37 12 -62 13 -215 2 -2790
3 -2836 1z"/>
<path d="M750 936 c-40 -18 -38 -85 3 -103 27 -11 2321 -11 2354 1 42 14 42
88 0 103 -32 11 -2332 10 -2357 -1z"/>
<path d="M3324 937 c-25 -13 -34 -27 -34 -53 0 -52 60 -75 100 -39 26 23 25
57 0 80 -26 23 -41 26 -66 12z"/>
</g>
</svg>
